<svg width="230" height="29" viewBox="0 0 230 29" fill="none" xmlns="http://www.w3.org/2000/svg">
<path d="M14.6816 10L19.375 1.43359H20.4121L21.4961 10H20.5176L20.1777 7.26953H17.2188L15.7656 10H14.6816ZM17.6934 6.38477H20.0781L19.8496 4.38672C19.8223 4.09766 19.793 3.78125 19.7617 3.4375C19.7305 3.08984 19.7109 2.7793 19.7031 2.50586H19.668C19.543 2.80273 19.4004 3.11523 19.2402 3.44336C19.084 3.76758 18.918 4.0957 18.7422 4.42773L17.6934 6.38477ZM21.8242 12.8711L23.7871 3.57812H24.584L24.4258 4.82617H24.4668C24.6504 4.58398 24.8516 4.36133 25.0703 4.1582C25.293 3.95117 25.5352 3.78516 25.7969 3.66016C26.0625 3.53516 26.3516 3.47266 26.6641 3.47266C27.0156 3.47266 27.3223 3.55664 27.584 3.72461C27.8457 3.88867 28.0488 4.13477 28.1934 4.46289C28.3418 4.78711 28.416 5.19141 28.416 5.67578C28.416 6.13672 28.3691 6.58594 28.2754 7.02344C28.1855 7.45703 28.0527 7.86133 27.877 8.23633C27.7012 8.60742 27.4844 8.93555 27.2266 9.2207C26.9727 9.50195 26.6816 9.72266 26.3535 9.88281C26.0254 10.0391 25.6641 10.1172 25.2695 10.1172C24.9688 10.1172 24.709 10.0645 24.4902 9.95898C24.2754 9.84961 24.0938 9.70703 23.9453 9.53125C23.8008 9.35547 23.6855 9.16602 23.5996 8.96289H23.5469C23.5312 9.10742 23.5059 9.29688 23.4707 9.53125C23.4395 9.76172 23.4062 9.95508 23.3711 10.1113L22.7852 12.8711H21.8242ZM25.1992 9.30859C25.4727 9.30859 25.7227 9.24023 25.9492 9.10352C26.1797 8.9668 26.3848 8.78125 26.5645 8.54688C26.748 8.30859 26.9023 8.0332 27.0273 7.7207C27.1562 7.4082 27.2539 7.07617 27.3203 6.72461C27.3867 6.37305 27.4199 6.01562 27.4199 5.65234C27.4199 5.19922 27.3281 4.85742 27.1445 4.62695C26.9648 4.39648 26.6953 4.28125 26.3359 4.28125C26.1484 4.28125 25.959 4.32812 25.7676 4.42188C25.5762 4.51172 25.3906 4.64062 25.2109 4.80859C25.0312 4.97266 24.8633 5.16797 24.707 5.39453C24.5508 5.62109 24.4141 5.87109 24.2969 6.14453C24.1836 6.41797 24.0938 6.70703 24.0273 7.01172C23.9609 7.31641 23.9277 7.62891 23.9277 7.94922C23.9277 8.35938 24.0312 8.68945 24.2383 8.93945C24.4492 9.18555 24.7695 9.30859 25.1992 9.30859ZM28.7617 12.8711L30.7246 3.57812H31.5215L31.3633 4.82617H31.4043C31.5879 4.58398 31.7891 4.36133 32.0078 4.1582C32.2305 3.95117 32.4727 3.78516 32.7344 3.66016C33 3.53516 33.2891 3.47266 33.6016 3.47266C33.9531 3.47266 34.2598 3.55664 34.5215 3.72461C34.7832 3.88867 34.9863 4.13477 35.1309 4.46289C35.2793 4.78711 35.3535 5.19141 35.3535 5.67578C35.3535 6.13672 35.3066 6.58594 35.2129 7.02344C35.123 7.45703 34.9902 7.86133 34.8145 8.23633C34.6387 8.60742 34.4219 8.93555 34.1641 9.2207C33.9102 9.50195 33.6191 9.72266 33.291 9.88281C32.9629 10.0391 32.6016 10.1172 32.207 10.1172C31.9062 10.1172 31.6465 10.0645 31.4277 9.95898C31.2129 9.84961 31.0312 9.70703 30.8828 9.53125C30.7383 9.35547 30.623 9.16602 30.5371 8.96289H30.4844C30.4688 9.10742 30.4434 9.29688 30.4082 9.53125C30.377 9.76172 30.3438 9.95508 30.3086 10.1113L29.7227 12.8711H28.7617ZM32.1367 9.30859C32.4102 9.30859 32.6602 9.24023 32.8867 9.10352C33.1172 8.9668 33.3223 8.78125 33.502 8.54688C33.6855 8.30859 33.8398 8.0332 33.9648 7.7207C34.0938 7.4082 34.1914 7.07617 34.2578 6.72461C34.3242 6.37305 34.3574 6.01562 34.3574 5.65234C34.3574 5.19922 34.2656 4.85742 34.082 4.62695C33.9023 4.39648 33.6328 4.28125 33.2734 4.28125C33.0859 4.28125 32.8965 4.32812 32.7051 4.42188C32.5137 4.51172 32.3281 4.64062 32.1484 4.80859C31.9688 4.97266 31.8008 5.16797 31.6445 5.39453C31.4883 5.62109 31.3516 5.87109 31.2344 6.14453C31.1211 6.41797 31.0312 6.70703 30.9648 7.01172C30.8984 7.31641 30.8652 7.62891 30.8652 7.94922C30.8652 8.35938 30.9688 8.68945 31.1758 8.93945C31.3867 9.18555 31.707 9.30859 32.1367 9.30859ZM36.2852 10L38.2305 0.882812H39.2031L37.2637 10H36.2852ZM39.332 10L40.6973 3.57812H41.6758L40.3105 10H39.332ZM41.5176 2.45312C41.3613 2.45312 41.2305 2.4082 41.125 2.31836C41.0234 2.22461 40.9727 2.09375 40.9727 1.92578C40.9727 1.79688 40.998 1.67578 41.0488 1.5625C41.1035 1.44922 41.1797 1.35938 41.2773 1.29297C41.3789 1.22266 41.502 1.1875 41.6465 1.1875C41.8184 1.1875 41.9473 1.23242 42.0332 1.32227C42.1191 1.41211 42.1621 1.53711 42.1621 1.69727C42.1621 1.92773 42.0957 2.11133 41.9629 2.24805C41.8301 2.38477 41.6816 2.45312 41.5176 2.45312ZM44.9922 10.1172C44.5156 10.1172 44.0977 10.0273 43.7383 9.84766C43.3828 9.66406 43.1055 9.39453 42.9062 9.03906C42.7109 8.68359 42.6133 8.24219 42.6133 7.71484C42.6133 7.25781 42.6621 6.81836 42.7598 6.39648C42.8613 5.97461 43.0078 5.58594 43.1992 5.23047C43.3906 4.875 43.623 4.56445 43.8965 4.29883C44.1699 4.0332 44.4805 3.82812 44.8281 3.68359C45.1797 3.53516 45.5625 3.46094 45.9766 3.46094C46.2539 3.46094 46.5293 3.48828 46.8027 3.54297C47.0801 3.59375 47.3301 3.66797 47.5527 3.76562L47.2773 4.58594C47.1133 4.50781 46.9199 4.4375 46.6973 4.375C46.4746 4.3125 46.2363 4.28125 45.9824 4.28125C45.627 4.28125 45.3027 4.37109 45.0098 4.55078C44.7207 4.73047 44.4707 4.98047 44.2598 5.30078C44.0527 5.61719 43.8926 5.98047 43.7793 6.39062C43.666 6.80078 43.6094 7.23828 43.6094 7.70312C43.6094 8.03516 43.668 8.32227 43.7852 8.56445C43.9023 8.80273 44.0703 8.98633 44.2891 9.11523C44.5117 9.24414 44.7773 9.30859 45.0859 9.30859C45.3711 9.30859 45.6387 9.26953 45.8887 9.19141C46.1426 9.11328 46.3906 9.01953 46.6328 8.91016V9.74219C46.418 9.85156 46.1719 9.94141 45.8945 10.0117C45.6211 10.082 45.3203 10.1172 44.9922 10.1172ZM49.7852 10.1172C49.4375 10.1172 49.1328 10.0332 48.8711 9.86523C48.6094 9.69727 48.4062 9.44922 48.2617 9.12109C48.1172 8.79297 48.0449 8.39258 48.0449 7.91992C48.0449 7.44727 48.0938 6.99219 48.1914 6.55469C48.293 6.11719 48.4355 5.71094 48.6191 5.33594C48.8027 4.96094 49.0234 4.63281 49.2812 4.35156C49.543 4.07031 49.8359 3.85156 50.1602 3.69531C50.4844 3.53906 50.834 3.46094 51.209 3.46094C51.498 3.46094 51.748 3.51562 51.959 3.625C52.1738 3.73438 52.3516 3.87891 52.4922 4.05859C52.6367 4.23438 52.75 4.42188 52.832 4.62109H52.8906L53.2656 3.57812H54.0098L52.6504 10H51.8711L52.0469 8.75781H52C51.8242 8.99219 51.623 9.21289 51.3965 9.41992C51.1699 9.62695 50.9219 9.79492 50.6523 9.92383C50.3828 10.0527 50.0938 10.1172 49.7852 10.1172ZM50.1016 9.30859C50.4023 9.30859 50.6992 9.19922 50.9922 8.98047C51.2891 8.75781 51.5547 8.45898 51.7891 8.08398C52.0273 7.70508 52.209 7.2793 52.334 6.80664C52.3965 6.57617 52.4375 6.36523 52.457 6.17383C52.4805 5.97852 52.4922 5.79688 52.4922 5.62891C52.4922 5.22656 52.3848 4.90234 52.1699 4.65625C51.959 4.40625 51.6699 4.28125 51.3027 4.28125C51.041 4.28125 50.7949 4.34766 50.5645 4.48047C50.334 4.60938 50.125 4.79102 49.9375 5.02539C49.7539 5.25586 49.5957 5.52539 49.4629 5.83398C49.3301 6.13867 49.2266 6.4707 49.1523 6.83008C49.082 7.18945 49.0469 7.55859 49.0469 7.9375C49.0469 8.38672 49.1387 8.72852 49.3223 8.96289C49.5059 9.19336 49.7656 9.30859 50.1016 9.30859ZM56.418 10.1172C55.9922 10.1172 55.6367 10.0156 55.3516 9.8125C55.0703 9.60547 54.9297 9.25195 54.9297 8.75195C54.9297 8.63086 54.9375 8.5 54.9531 8.35938C54.9688 8.21484 54.9941 8.06641 55.0293 7.91406L55.7852 4.32227H54.7949L54.8887 3.87109L55.9551 3.46094L56.6582 2.10156H57.2383L56.916 3.57812H58.5684L58.416 4.32227H56.7695L56.0078 7.92578C55.9805 8.03516 55.9551 8.15234 55.9316 8.27734C55.9121 8.40234 55.9023 8.52148 55.9023 8.63477C55.9023 8.83008 55.9531 8.99414 56.0547 9.12695C56.1562 9.25586 56.3262 9.32031 56.5645 9.32031C56.7129 9.32031 56.8535 9.30664 56.9863 9.2793C57.123 9.25195 57.2676 9.21289 57.4199 9.16211V9.91211C57.3223 9.95898 57.1738 10.0039 56.9746 10.0469C56.7793 10.0938 56.5938 10.1172 56.418 10.1172ZM58.5508 10L59.916 3.57812H60.8945L59.5293 10H58.5508ZM60.7363 2.45312C60.5801 2.45312 60.4492 2.4082 60.3438 2.31836C60.2422 2.22461 60.1914 2.09375 60.1914 1.92578C60.1914 1.79688 60.2168 1.67578 60.2676 1.5625C60.3223 1.44922 60.3984 1.35938 60.4961 1.29297C60.5977 1.22266 60.7207 1.1875 60.8652 1.1875C61.0371 1.1875 61.166 1.23242 61.252 1.32227C61.3379 1.41211 61.3809 1.53711 61.3809 1.69727C61.3809 1.92773 61.3145 2.11133 61.1816 2.24805C61.0488 2.38477 60.9004 2.45312 60.7363 2.45312ZM64.2051 10.0938C63.7129 10.0938 63.2891 9.99414 62.9336 9.79492C62.5781 9.5918 62.3047 9.30664 62.1133 8.93945C61.9258 8.56836 61.832 8.13086 61.832 7.62695C61.832 7.2207 61.877 6.82031 61.9668 6.42578C62.0566 6.02734 62.1895 5.65234 62.3652 5.30078C62.541 4.94531 62.7578 4.63281 63.0156 4.36328C63.2773 4.08984 63.5781 3.87695 63.918 3.72461C64.2578 3.56836 64.6367 3.49023 65.0547 3.49023C65.5547 3.49023 65.9805 3.5918 66.332 3.79492C66.6875 3.99414 66.959 4.2793 67.1465 4.65039C67.3379 5.02148 67.4336 5.46094 67.4336 5.96875C67.4336 6.36719 67.3887 6.76367 67.2988 7.1582C67.2129 7.55273 67.082 7.92773 66.9062 8.2832C66.7344 8.63477 66.5176 8.94727 66.2559 9.2207C65.998 9.49023 65.6973 9.70312 65.3535 9.85938C65.0137 10.0156 64.6309 10.0938 64.2051 10.0938ZM64.2637 9.28516C64.5059 9.28516 64.7363 9.23438 64.9551 9.13281C65.1738 9.03125 65.373 8.88477 65.5527 8.69336C65.7324 8.49805 65.8867 8.26172 66.0156 7.98438C66.1484 7.70312 66.25 7.38477 66.3203 7.0293C66.3945 6.67383 66.4316 6.2832 66.4316 5.85742C66.4316 5.60352 66.3867 5.35742 66.2969 5.11914C66.207 4.88086 66.0625 4.68555 65.8633 4.5332C65.6641 4.37695 65.3984 4.29883 65.0664 4.29883C64.793 4.29883 64.5391 4.35547 64.3047 4.46875C64.0742 4.58203 63.8672 4.74219 63.6836 4.94922C63.5 5.15625 63.3438 5.40039 63.2148 5.68164C63.0898 5.96289 62.9922 6.27148 62.9219 6.60742C62.8555 6.94336 62.8223 7.29688 62.8223 7.66797C62.8223 8.17969 62.9473 8.57812 63.1973 8.86328C63.4473 9.14453 63.8027 9.28516 64.2637 9.28516ZM68.3066 10L69.6836 3.54883H70.5449L70.3926 4.78516H70.4043C70.5527 4.58203 70.7305 4.37695 70.9375 4.16992C71.1484 3.95898 71.3926 3.7832 71.6699 3.64258C71.9512 3.49805 72.2695 3.42578 72.625 3.42578C72.9688 3.42578 73.2637 3.49023 73.5098 3.61914C73.7559 3.74414 73.9453 3.92773 74.0781 4.16992C74.2109 4.4082 74.2773 4.69727 74.2773 5.03711C74.2773 5.2168 74.2637 5.39844 74.2363 5.58203C74.209 5.76562 74.1797 5.92969 74.1484 6.07422L73.293 10H72.2559L73.123 5.94531C73.1582 5.76953 73.1855 5.61914 73.2051 5.49414C73.2285 5.36914 73.2402 5.25195 73.2402 5.14258C73.2402 4.86914 73.166 4.66211 73.0176 4.52148C72.8691 4.38086 72.6504 4.31055 72.3613 4.31055C72.0762 4.31055 71.7754 4.4082 71.459 4.60352C71.1426 4.79883 70.8496 5.10742 70.5801 5.5293C70.3105 5.94727 70.1016 6.49414 69.9531 7.16992L69.3496 10H68.3066ZM80.998 10.0938C80.5059 10.0938 80.082 9.99414 79.7266 9.79492C79.3711 9.5918 79.0977 9.30664 78.9062 8.93945C78.7188 8.56836 78.625 8.13086 78.625 7.62695C78.625 7.2207 78.6699 6.82031 78.7598 6.42578C78.8496 6.02734 78.9824 5.65234 79.1582 5.30078C79.334 4.94531 79.5508 4.63281 79.8086 4.36328C80.0703 4.08984 80.3711 3.87695 80.7109 3.72461C81.0508 3.56836 81.4297 3.49023 81.8477 3.49023C82.3477 3.49023 82.7734 3.5918 83.125 3.79492C83.4805 3.99414 83.752 4.2793 83.9395 4.65039C84.1309 5.02148 84.2266 5.46094 84.2266 5.96875C84.2266 6.36719 84.1816 6.76367 84.0918 7.1582C84.0059 7.55273 83.875 7.92773 83.6992 8.2832C83.5273 8.63477 83.3105 8.94727 83.0488 9.2207C82.791 9.49023 82.4902 9.70312 82.1465 9.85938C81.8066 10.0156 81.4238 10.0938 80.998 10.0938ZM81.0566 9.28516C81.2988 9.28516 81.5293 9.23438 81.748 9.13281C81.9668 9.03125 82.166 8.88477 82.3457 8.69336C82.5254 8.49805 82.6797 8.26172 82.8086 7.98438C82.9414 7.70312 83.043 7.38477 83.1133 7.0293C83.1875 6.67383 83.2246 6.2832 83.2246 5.85742C83.2246 5.60352 83.1797 5.35742 83.0898 5.11914C83 4.88086 82.8555 4.68555 82.6562 4.5332C82.457 4.37695 82.1914 4.29883 81.8594 4.29883C81.5859 4.29883 81.332 4.35547 81.0977 4.46875C80.8672 4.58203 80.6602 4.74219 80.4766 4.94922C80.293 5.15625 80.1367 5.40039 80.0078 5.68164C79.8828 5.96289 79.7852 6.27148 79.7148 6.60742C79.6484 6.94336 79.6152 7.29688 79.6152 7.66797C79.6152 8.17969 79.7402 8.57812 79.9902 8.86328C80.2402 9.14453 80.5957 9.28516 81.0566 9.28516ZM85.0996 10L86.4766 3.54883H87.3379L87.1855 4.78516H87.1973C87.3457 4.58203 87.5234 4.37695 87.7305 4.16992C87.9414 3.95898 88.1855 3.7832 88.4629 3.64258C88.7441 3.49805 89.0625 3.42578 89.418 3.42578C89.7617 3.42578 90.0566 3.49023 90.3027 3.61914C90.5488 3.74414 90.7383 3.92773 90.8711 4.16992C91.0039 4.4082 91.0703 4.69727 91.0703 5.03711C91.0703 5.2168 91.0566 5.39844 91.0293 5.58203C91.002 5.76562 90.9727 5.92969 90.9414 6.07422L90.0859 10H89.0488L89.916 5.94531C89.9512 5.76953 89.9785 5.61914 89.998 5.49414C90.0215 5.36914 90.0332 5.25195 90.0332 5.14258C90.0332 4.86914 89.959 4.66211 89.8105 4.52148C89.6621 4.38086 89.4434 4.31055 89.1543 4.31055C88.8691 4.31055 88.5684 4.4082 88.252 4.60352C87.9355 4.79883 87.6426 5.10742 87.373 5.5293C87.1035 5.94727 86.8945 6.49414 86.7461 7.16992L86.1426 10H85.0996ZM92.043 10L93.9883 0.882812H94.9609L93.0215 10H92.043ZM94.4102 12.8887C94.2188 12.8887 94.0645 12.877 93.9473 12.8535C93.8262 12.8301 93.709 12.8008 93.5957 12.7656V11.9746C93.7012 12.002 93.8184 12.0254 93.9473 12.0449C94.0762 12.0684 94.2129 12.0801 94.3574 12.0801C94.6777 12.0801 94.9531 11.9785 95.1836 11.7754C95.4141 11.5723 95.6387 11.2734 95.8574 10.8789L96.3086 10.0762L95.3242 3.57812H96.3086L96.7539 6.87695C96.793 7.13477 96.8242 7.41211 96.8477 7.70898C96.8711 8.00195 96.8887 8.28125 96.9004 8.54688C96.9121 8.80859 96.918 9.02148 96.918 9.18555H96.9531C97.0078 9.05664 97.0898 8.87109 97.1992 8.62891C97.3086 8.38281 97.4258 8.12695 97.5508 7.86133C97.6758 7.5957 97.7871 7.37305 97.8848 7.19336L99.8125 3.57812H100.855L96.7422 11.1133C96.5312 11.5039 96.3145 11.8301 96.0918 12.0918C95.873 12.3574 95.6289 12.5566 95.3594 12.6895C95.0898 12.8223 94.7734 12.8887 94.4102 12.8887ZM102.795 12.8828C102.643 12.8828 102.502 12.8711 102.373 12.8477C102.244 12.8242 102.131 12.7949 102.033 12.7598V11.9336C102.139 11.9727 102.246 12.0039 102.355 12.0273C102.465 12.0547 102.582 12.0684 102.707 12.0684C102.996 12.0684 103.221 11.9531 103.381 11.7227C103.541 11.4922 103.67 11.1582 103.768 10.7207L105.115 4.32227H103.996L104.078 3.90625L105.268 3.54883L105.408 2.92773C105.498 2.5293 105.605 2.19531 105.73 1.92578C105.859 1.65234 106.01 1.43555 106.182 1.27539C106.354 1.11133 106.553 0.994141 106.779 0.923828C107.01 0.853516 107.273 0.818359 107.57 0.818359C107.766 0.818359 107.965 0.841797 108.168 0.888672C108.375 0.931641 108.543 0.982422 108.672 1.04102L108.42 1.78516C108.303 1.74219 108.178 1.70508 108.045 1.67383C107.912 1.63867 107.768 1.62109 107.611 1.62109C107.279 1.62109 107.018 1.71484 106.826 1.90234C106.639 2.08594 106.49 2.42969 106.381 2.93359L106.234 3.57812H107.617L107.477 4.32227H106.088L104.717 10.832C104.623 11.2617 104.496 11.6289 104.336 11.9336C104.176 12.2422 103.971 12.4766 103.721 12.6367C103.471 12.8008 103.162 12.8828 102.795 12.8828ZM110.107 10.0938C109.615 10.0938 109.191 9.99414 108.836 9.79492C108.48 9.5918 108.207 9.30664 108.016 8.93945C107.828 8.56836 107.734 8.13086 107.734 7.62695C107.734 7.2207 107.779 6.82031 107.869 6.42578C107.959 6.02734 108.092 5.65234 108.268 5.30078C108.443 4.94531 108.66 4.63281 108.918 4.36328C109.18 4.08984 109.48 3.87695 109.82 3.72461C110.16 3.56836 110.539 3.49023 110.957 3.49023C111.457 3.49023 111.883 3.5918 112.234 3.79492C112.59 3.99414 112.861 4.2793 113.049 4.65039C113.24 5.02148 113.336 5.46094 113.336 5.96875C113.336 6.36719 113.291 6.76367 113.201 7.1582C113.115 7.55273 112.984 7.92773 112.809 8.2832C112.637 8.63477 112.42 8.94727 112.158 9.2207C111.9 9.49023 111.6 9.70312 111.256 9.85938C110.916 10.0156 110.533 10.0938 110.107 10.0938ZM110.166 9.28516C110.408 9.28516 110.639 9.23438 110.857 9.13281C111.076 9.03125 111.275 8.88477 111.455 8.69336C111.635 8.49805 111.789 8.26172 111.918 7.98438C112.051 7.70312 112.152 7.38477 112.223 7.0293C112.297 6.67383 112.334 6.2832 112.334 5.85742C112.334 5.60352 112.289 5.35742 112.199 5.11914C112.109 4.88086 111.965 4.68555 111.766 4.5332C111.566 4.37695 111.301 4.29883 110.969 4.29883C110.695 4.29883 110.441 4.35547 110.207 4.46875C109.977 4.58203 109.77 4.74219 109.586 4.94922C109.402 5.15625 109.246 5.40039 109.117 5.68164C108.992 5.96289 108.895 6.27148 108.824 6.60742C108.758 6.94336 108.725 7.29688 108.725 7.66797C108.725 8.17969 108.85 8.57812 109.1 8.86328C109.35 9.14453 109.705 9.28516 110.166 9.28516ZM114.25 10L115.615 3.57812H116.412L116.26 4.82031H116.318C116.482 4.59766 116.658 4.38281 116.846 4.17578C117.033 3.96484 117.246 3.79297 117.484 3.66016C117.727 3.52734 118.004 3.46094 118.316 3.46094C118.434 3.46094 118.553 3.46875 118.674 3.48438C118.795 3.49609 118.908 3.51758 119.014 3.54883L118.803 4.42188C118.697 4.39844 118.594 4.38086 118.492 4.36914C118.395 4.35742 118.293 4.35156 118.188 4.35156C117.891 4.35156 117.615 4.42969 117.361 4.58594C117.107 4.73828 116.879 4.94336 116.676 5.20117C116.477 5.45898 116.307 5.74609 116.166 6.0625C116.029 6.37891 115.926 6.70117 115.855 7.0293L115.229 10H114.25ZM122.277 10L124.088 1.43359H125.963C126.838 1.43359 127.494 1.61523 127.932 1.97852C128.369 2.33789 128.588 2.87109 128.588 3.57812C128.588 4 128.516 4.38477 128.371 4.73242C128.227 5.07617 127.994 5.37305 127.674 5.62305C127.357 5.87305 126.941 6.06836 126.426 6.20898L127.832 10H126.754L125.512 6.42578H124.018L123.262 10H122.277ZM124.193 5.58203H125.23C125.625 5.58203 125.969 5.53711 126.262 5.44727C126.555 5.35352 126.797 5.22266 126.988 5.05469C127.184 4.88672 127.328 4.68359 127.422 4.44531C127.52 4.20703 127.568 3.94141 127.568 3.64844C127.568 3.15234 127.426 2.80273 127.141 2.59961C126.859 2.39648 126.434 2.29492 125.863 2.29492H124.902L124.193 5.58203ZM130.908 10.1172C130.584 10.1172 130.301 10.0566 130.059 9.93555C129.816 9.81445 129.629 9.63672 129.496 9.40234C129.367 9.16406 129.303 8.87305 129.303 8.5293C129.303 8.35742 129.314 8.19141 129.338 8.03125C129.365 7.86719 129.395 7.69727 129.426 7.52148L130.275 3.57812H131.26L130.387 7.63281C130.355 7.80078 130.33 7.95117 130.311 8.08398C130.295 8.21289 130.287 8.32812 130.287 8.42969C130.287 8.70703 130.357 8.92383 130.498 9.08008C130.643 9.23242 130.871 9.30859 131.184 9.30859C131.477 9.30859 131.783 9.20898 132.104 9.00977C132.428 8.81055 132.727 8.49805 133 8.07227C133.277 7.64258 133.488 7.08594 133.633 6.40234L134.23 3.57812H135.191L133.832 10H133.029L133.188 8.75781H133.135C132.986 8.96094 132.807 9.16797 132.596 9.37891C132.385 9.58594 132.141 9.76172 131.863 9.90625C131.586 10.0469 131.268 10.1172 130.908 10.1172ZM137.424 10.1172C137.033 10.1172 136.689 10.0781 136.393 10C136.1 9.92188 135.844 9.82422 135.625 9.70703V8.80469C135.832 8.92969 136.094 9.04688 136.41 9.15625C136.73 9.26562 137.059 9.32031 137.395 9.32031C137.727 9.32031 138.002 9.27539 138.221 9.18555C138.443 9.0957 138.609 8.97266 138.719 8.81641C138.832 8.65625 138.889 8.4707 138.889 8.25977C138.889 8.0918 138.852 7.94727 138.777 7.82617C138.707 7.70117 138.59 7.58008 138.426 7.46289C138.266 7.3457 138.051 7.21094 137.781 7.05859C137.48 6.89062 137.227 6.7207 137.02 6.54883C136.812 6.37695 136.654 6.18945 136.545 5.98633C136.439 5.7793 136.387 5.53906 136.387 5.26562C136.387 4.89844 136.477 4.58008 136.656 4.31055C136.836 4.04102 137.088 3.83203 137.412 3.68359C137.74 3.53516 138.123 3.46094 138.561 3.46094C138.947 3.46094 139.305 3.50586 139.633 3.5957C139.961 3.68164 140.244 3.78125 140.482 3.89453L140.166 4.67383C139.963 4.57617 139.73 4.48633 139.469 4.4043C139.207 4.32227 138.904 4.28125 138.561 4.28125C138.193 4.28125 137.9 4.36523 137.682 4.5332C137.467 4.70117 137.359 4.92773 137.359 5.21289C137.359 5.36133 137.391 5.49414 137.453 5.61133C137.52 5.72852 137.633 5.8457 137.793 5.96289C137.953 6.07617 138.172 6.20898 138.449 6.36133C138.719 6.51758 138.961 6.67773 139.176 6.8418C139.395 7.00195 139.566 7.1875 139.691 7.39844C139.82 7.60547 139.885 7.86133 139.885 8.16602C139.885 8.58398 139.785 8.93945 139.586 9.23242C139.387 9.52148 139.102 9.74219 138.73 9.89453C138.363 10.043 137.928 10.1172 137.424 10.1172ZM142.604 10.1172C142.213 10.1172 141.869 10.0781 141.572 10C141.279 9.92188 141.023 9.82422 140.805 9.70703V8.80469C141.012 8.92969 141.273 9.04688 141.59 9.15625C141.91 9.26562 142.238 9.32031 142.574 9.32031C142.906 9.32031 143.182 9.27539 143.4 9.18555C143.623 9.0957 143.789 8.97266 143.898 8.81641C144.012 8.65625 144.068 8.4707 144.068 8.25977C144.068 8.0918 144.031 7.94727 143.957 7.82617C143.887 7.70117 143.77 7.58008 143.605 7.46289C143.445 7.3457 143.23 7.21094 142.961 7.05859C142.66 6.89062 142.406 6.7207 142.199 6.54883C141.992 6.37695 141.834 6.18945 141.725 5.98633C141.619 5.7793 141.566 5.53906 141.566 5.26562C141.566 4.89844 141.656 4.58008 141.836 4.31055C142.016 4.04102 142.268 3.83203 142.592 3.68359C142.92 3.53516 143.303 3.46094 143.74 3.46094C144.127 3.46094 144.484 3.50586 144.812 3.5957C145.141 3.68164 145.424 3.78125 145.662 3.89453L145.346 4.67383C145.143 4.57617 144.91 4.48633 144.648 4.4043C144.387 4.32227 144.084 4.28125 143.74 4.28125C143.373 4.28125 143.08 4.36523 142.861 4.5332C142.646 4.70117 142.539 4.92773 142.539 5.21289C142.539 5.36133 142.57 5.49414 142.633 5.61133C142.699 5.72852 142.812 5.8457 142.973 5.96289C143.133 6.07617 143.352 6.20898 143.629 6.36133C143.898 6.51758 144.141 6.67773 144.355 6.8418C144.574 7.00195 144.746 7.1875 144.871 7.39844C145 7.60547 145.064 7.86133 145.064 8.16602C145.064 8.58398 144.965 8.93945 144.766 9.23242C144.566 9.52148 144.281 9.74219 143.91 9.89453C143.543 10.043 143.107 10.1172 142.604 10.1172ZM146.254 10L147.619 3.57812H148.598L147.232 10H146.254ZM148.439 2.45312C148.283 2.45312 148.152 2.4082 148.047 2.31836C147.945 2.22461 147.895 2.09375 147.895 1.92578C147.895 1.79688 147.92 1.67578 147.971 1.5625C148.025 1.44922 148.102 1.35938 148.199 1.29297C148.301 1.22266 148.424 1.1875 148.568 1.1875C148.74 1.1875 148.869 1.23242 148.955 1.32227C149.041 1.41211 149.084 1.53711 149.084 1.69727C149.084 1.92773 149.018 2.11133 148.885 2.24805C148.752 2.38477 148.604 2.45312 148.439 2.45312ZM151.27 10.1172C150.922 10.1172 150.617 10.0332 150.355 9.86523C150.094 9.69727 149.891 9.44922 149.746 9.12109C149.602 8.79297 149.529 8.39258 149.529 7.91992C149.529 7.44727 149.578 6.99219 149.676 6.55469C149.777 6.11719 149.92 5.71094 150.104 5.33594C150.287 4.96094 150.508 4.63281 150.766 4.35156C151.027 4.07031 151.32 3.85156 151.645 3.69531C151.969 3.53906 152.318 3.46094 152.693 3.46094C152.982 3.46094 153.232 3.51562 153.443 3.625C153.658 3.73438 153.836 3.87891 153.977 4.05859C154.121 4.23438 154.234 4.42188 154.316 4.62109H154.375L154.75 3.57812H155.494L154.135 10H153.355L153.531 8.75781H153.484C153.309 8.99219 153.107 9.21289 152.881 9.41992C152.654 9.62695 152.406 9.79492 152.137 9.92383C151.867 10.0527 151.578 10.1172 151.27 10.1172ZM151.586 9.30859C151.887 9.30859 152.184 9.19922 152.477 8.98047C152.773 8.75781 153.039 8.45898 153.273 8.08398C153.512 7.70508 153.693 7.2793 153.818 6.80664C153.881 6.57617 153.922 6.36523 153.941 6.17383C153.965 5.97852 153.977 5.79688 153.977 5.62891C153.977 5.22656 153.869 4.90234 153.654 4.65625C153.443 4.40625 153.154 4.28125 152.787 4.28125C152.525 4.28125 152.279 4.34766 152.049 4.48047C151.818 4.60938 151.609 4.79102 151.422 5.02539C151.238 5.25586 151.08 5.52539 150.947 5.83398C150.814 6.13867 150.711 6.4707 150.637 6.83008C150.566 7.18945 150.531 7.55859 150.531 7.9375C150.531 8.38672 150.623 8.72852 150.807 8.96289C150.99 9.19336 151.25 9.30859 151.586 9.30859ZM156.033 10L157.41 3.54883H158.271L158.119 4.78516H158.131C158.279 4.58203 158.457 4.37695 158.664 4.16992C158.875 3.95898 159.119 3.7832 159.396 3.64258C159.678 3.49805 159.996 3.42578 160.352 3.42578C160.695 3.42578 160.99 3.49023 161.236 3.61914C161.482 3.74414 161.672 3.92773 161.805 4.16992C161.938 4.4082 162.004 4.69727 162.004 5.03711C162.004 5.2168 161.99 5.39844 161.963 5.58203C161.936 5.76562 161.906 5.92969 161.875 6.07422L161.02 10H159.982L160.85 5.94531C160.885 5.76953 160.912 5.61914 160.932 5.49414C160.955 5.36914 160.967 5.25195 160.967 5.14258C160.967 4.86914 160.893 4.66211 160.744 4.52148C160.596 4.38086 160.377 4.31055 160.088 4.31055C159.803 4.31055 159.502 4.4082 159.186 4.60352C158.869 4.79883 158.576 5.10742 158.307 5.5293C158.037 5.94727 157.828 6.49414 157.68 7.16992L157.076 10H156.033ZM166.094 10L168.039 0.882812H169.012L167.072 10H166.094ZM171.121 10.1172C170.773 10.1172 170.469 10.0332 170.207 9.86523C169.945 9.69727 169.742 9.44922 169.598 9.12109C169.453 8.79297 169.381 8.39258 169.381 7.91992C169.381 7.44727 169.43 6.99219 169.527 6.55469C169.629 6.11719 169.771 5.71094 169.955 5.33594C170.139 4.96094 170.359 4.63281 170.617 4.35156C170.879 4.07031 171.172 3.85156 171.496 3.69531C171.82 3.53906 172.17 3.46094 172.545 3.46094C172.834 3.46094 173.084 3.51562 173.295 3.625C173.51 3.73438 173.688 3.87891 173.828 4.05859C173.973 4.23438 174.086 4.42188 174.168 4.62109H174.227L174.602 3.57812H175.346L173.986 10H173.207L173.383 8.75781H173.336C173.16 8.99219 172.959 9.21289 172.732 9.41992C172.506 9.62695 172.258 9.79492 171.988 9.92383C171.719 10.0527 171.43 10.1172 171.121 10.1172ZM171.438 9.30859C171.738 9.30859 172.035 9.19922 172.328 8.98047C172.625 8.75781 172.891 8.45898 173.125 8.08398C173.363 7.70508 173.545 7.2793 173.67 6.80664C173.732 6.57617 173.773 6.36523 173.793 6.17383C173.816 5.97852 173.828 5.79688 173.828 5.62891C173.828 5.22656 173.721 4.90234 173.506 4.65625C173.295 4.40625 173.006 4.28125 172.639 4.28125C172.377 4.28125 172.131 4.34766 171.9 4.48047C171.67 4.60938 171.461 4.79102 171.273 5.02539C171.09 5.25586 170.932 5.52539 170.799 5.83398C170.666 6.13867 170.562 6.4707 170.488 6.83008C170.418 7.18945 170.383 7.55859 170.383 7.9375C170.383 8.38672 170.475 8.72852 170.658 8.96289C170.842 9.19336 171.102 9.30859 171.438 9.30859ZM175.885 10L177.262 3.54883H178.123L177.971 4.78516H177.982C178.131 4.58203 178.309 4.37695 178.516 4.16992C178.727 3.95898 178.971 3.7832 179.248 3.64258C179.529 3.49805 179.848 3.42578 180.203 3.42578C180.547 3.42578 180.842 3.49023 181.088 3.61914C181.334 3.74414 181.523 3.92773 181.656 4.16992C181.789 4.4082 181.855 4.69727 181.855 5.03711C181.855 5.2168 181.842 5.39844 181.814 5.58203C181.787 5.76562 181.758 5.92969 181.727 6.07422L180.871 10H179.834L180.701 5.94531C180.736 5.76953 180.764 5.61914 180.783 5.49414C180.807 5.36914 180.818 5.25195 180.818 5.14258C180.818 4.86914 180.744 4.66211 180.596 4.52148C180.447 4.38086 180.229 4.31055 179.939 4.31055C179.654 4.31055 179.354 4.4082 179.037 4.60352C178.721 4.79883 178.428 5.10742 178.158 5.5293C177.889 5.94727 177.68 6.49414 177.531 7.16992L176.928 10H175.885ZM184.357 12.8828C183.604 12.8828 183.014 12.7383 182.588 12.4492C182.162 12.1641 181.949 11.7617 181.949 11.2422C181.949 10.8242 182.092 10.4609 182.377 10.1523C182.658 9.84766 183.111 9.5918 183.736 9.38477C183.588 9.30664 183.475 9.20898 183.396 9.0918C183.322 8.9707 183.285 8.83203 183.285 8.67578C183.285 8.41016 183.383 8.18164 183.578 7.99023C183.773 7.79492 184.047 7.61523 184.398 7.45117C184.148 7.32227 183.947 7.13281 183.795 6.88281C183.643 6.63281 183.566 6.3457 183.566 6.02148C183.57 5.63477 183.637 5.28125 183.766 4.96094C183.895 4.64062 184.076 4.36719 184.311 4.14062C184.529 3.92969 184.785 3.76562 185.078 3.64844C185.375 3.53125 185.697 3.47266 186.045 3.47266C186.193 3.47266 186.342 3.48242 186.49 3.50195C186.639 3.52148 186.785 3.55078 186.93 3.58984H189.098L188.957 4.18164L187.686 4.31055C187.775 4.43164 187.842 4.57422 187.885 4.73828C187.932 4.90234 187.953 5.08398 187.949 5.2832C187.949 5.66602 187.885 6.01172 187.756 6.32031C187.627 6.62891 187.443 6.89062 187.205 7.10547C186.99 7.29688 186.734 7.44531 186.438 7.55078C186.145 7.65234 185.816 7.70508 185.453 7.70898C185.348 7.70898 185.254 7.70508 185.172 7.69727C185.09 7.68945 185.02 7.67773 184.961 7.66211C184.676 7.76367 184.465 7.88281 184.328 8.01953C184.191 8.15625 184.123 8.30078 184.123 8.45312C184.123 8.5625 184.156 8.65039 184.223 8.7168C184.285 8.77539 184.371 8.82031 184.48 8.85156C184.594 8.87891 184.732 8.90234 184.896 8.92188L185.588 8.99805C186.057 9.05273 186.439 9.14648 186.736 9.2793C187.033 9.4082 187.252 9.58398 187.393 9.80664C187.533 10.0293 187.604 10.3047 187.604 10.6328C187.604 11.0469 187.508 11.4043 187.316 11.7051C187.125 12.0098 186.85 12.2578 186.49 12.4492C186.217 12.5898 185.9 12.6973 185.541 12.7715C185.186 12.8457 184.791 12.8828 184.357 12.8828ZM184.398 12.1738C184.754 12.1738 185.07 12.1426 185.348 12.0801C185.629 12.0176 185.867 11.9277 186.062 11.8105C186.273 11.6816 186.434 11.5254 186.543 11.3418C186.656 11.1582 186.713 10.9473 186.713 10.709C186.713 10.6035 186.695 10.5078 186.66 10.4219C186.629 10.3359 186.578 10.2598 186.508 10.1934C186.398 10.0879 186.242 10.002 186.039 9.93555C185.836 9.86914 185.578 9.82227 185.266 9.79492L184.328 9.70117C184 9.77148 183.725 9.875 183.502 10.0117C183.283 10.1523 183.117 10.3184 183.004 10.5098C182.891 10.7012 182.834 10.916 182.834 11.1543C182.834 11.4746 182.967 11.7246 183.232 11.9043C183.498 12.084 183.887 12.1738 184.398 12.1738ZM185.494 7.06445C185.83 7.06445 186.113 6.98047 186.344 6.8125C186.578 6.64062 186.758 6.41406 186.883 6.13281C187.008 5.84766 187.07 5.53711 187.07 5.20117C187.07 5.0332 187.047 4.88477 187 4.75586C186.957 4.62305 186.891 4.51367 186.801 4.42773C186.715 4.33789 186.605 4.26953 186.473 4.22266C186.344 4.17578 186.195 4.15234 186.027 4.15234C185.781 4.15234 185.561 4.20117 185.365 4.29883C185.17 4.39258 185.004 4.52344 184.867 4.69141C184.734 4.85938 184.631 5.05469 184.557 5.27734C184.486 5.5 184.451 5.73828 184.451 5.99219C184.451 6.15625 184.473 6.30273 184.516 6.43164C184.559 6.56055 184.621 6.66992 184.703 6.75977C184.883 6.96289 185.146 7.06445 185.494 7.06445ZM191.002 10.1172C190.678 10.1172 190.395 10.0566 190.152 9.93555C189.91 9.81445 189.723 9.63672 189.59 9.40234C189.461 9.16406 189.396 8.87305 189.396 8.5293C189.396 8.35742 189.408 8.19141 189.432 8.03125C189.459 7.86719 189.488 7.69727 189.52 7.52148L190.369 3.57812H191.354L190.48 7.63281C190.449 7.80078 190.424 7.95117 190.404 8.08398C190.389 8.21289 190.381 8.32812 190.381 8.42969C190.381 8.70703 190.451 8.92383 190.592 9.08008C190.736 9.23242 190.965 9.30859 191.277 9.30859C191.57 9.30859 191.877 9.20898 192.197 9.00977C192.521 8.81055 192.82 8.49805 193.094 8.07227C193.371 7.64258 193.582 7.08594 193.727 6.40234L194.324 3.57812H195.285L193.926 10H193.123L193.281 8.75781H193.229C193.08 8.96094 192.9 9.16797 192.689 9.37891C192.479 9.58594 192.234 9.76172 191.957 9.90625C191.68 10.0469 191.361 10.1172 191.002 10.1172ZM197.969 10.1172C197.621 10.1172 197.316 10.0332 197.055 9.86523C196.793 9.69727 196.59 9.44922 196.445 9.12109C196.301 8.79297 196.229 8.39258 196.229 7.91992C196.229 7.44727 196.277 6.99219 196.375 6.55469C196.477 6.11719 196.619 5.71094 196.803 5.33594C196.986 4.96094 197.207 4.63281 197.465 4.35156C197.727 4.07031 198.02 3.85156 198.344 3.69531C198.668 3.53906 199.018 3.46094 199.393 3.46094C199.682 3.46094 199.932 3.51562 200.143 3.625C200.357 3.73438 200.535 3.87891 200.676 4.05859C200.82 4.23438 200.934 4.42188 201.016 4.62109H201.074L201.449 3.57812H202.193L200.834 10H200.055L200.23 8.75781H200.184C200.008 8.99219 199.807 9.21289 199.58 9.41992C199.354 9.62695 199.105 9.79492 198.836 9.92383C198.566 10.0527 198.277 10.1172 197.969 10.1172ZM198.285 9.30859C198.586 9.30859 198.883 9.19922 199.176 8.98047C199.473 8.75781 199.738 8.45898 199.973 8.08398C200.211 7.70508 200.393 7.2793 200.518 6.80664C200.58 6.57617 200.621 6.36523 200.641 6.17383C200.664 5.97852 200.676 5.79688 200.676 5.62891C200.676 5.22656 200.568 4.90234 200.354 4.65625C200.143 4.40625 199.854 4.28125 199.486 4.28125C199.225 4.28125 198.979 4.34766 198.748 4.48047C198.518 4.60938 198.309 4.79102 198.121 5.02539C197.938 5.25586 197.779 5.52539 197.646 5.83398C197.514 6.13867 197.41 6.4707 197.336 6.83008C197.266 7.18945 197.23 7.55859 197.23 7.9375C197.23 8.38672 197.322 8.72852 197.506 8.96289C197.689 9.19336 197.949 9.30859 198.285 9.30859ZM204.291 12.8828C203.537 12.8828 202.947 12.7383 202.521 12.4492C202.096 12.1641 201.883 11.7617 201.883 11.2422C201.883 10.8242 202.025 10.4609 202.311 10.1523C202.592 9.84766 203.045 9.5918 203.67 9.38477C203.521 9.30664 203.408 9.20898 203.33 9.0918C203.256 8.9707 203.219 8.83203 203.219 8.67578C203.219 8.41016 203.316 8.18164 203.512 7.99023C203.707 7.79492 203.98 7.61523 204.332 7.45117C204.082 7.32227 203.881 7.13281 203.729 6.88281C203.576 6.63281 203.5 6.3457 203.5 6.02148C203.504 5.63477 203.57 5.28125 203.699 4.96094C203.828 4.64062 204.01 4.36719 204.244 4.14062C204.463 3.92969 204.719 3.76562 205.012 3.64844C205.309 3.53125 205.631 3.47266 205.979 3.47266C206.127 3.47266 206.275 3.48242 206.424 3.50195C206.572 3.52148 206.719 3.55078 206.863 3.58984H209.031L208.891 4.18164L207.619 4.31055C207.709 4.43164 207.775 4.57422 207.818 4.73828C207.865 4.90234 207.887 5.08398 207.883 5.2832C207.883 5.66602 207.818 6.01172 207.689 6.32031C207.561 6.62891 207.377 6.89062 207.139 7.10547C206.924 7.29688 206.668 7.44531 206.371 7.55078C206.078 7.65234 205.75 7.70508 205.387 7.70898C205.281 7.70898 205.188 7.70508 205.105 7.69727C205.023 7.68945 204.953 7.67773 204.895 7.66211C204.609 7.76367 204.398 7.88281 204.262 8.01953C204.125 8.15625 204.057 8.30078 204.057 8.45312C204.057 8.5625 204.09 8.65039 204.156 8.7168C204.219 8.77539 204.305 8.82031 204.414 8.85156C204.527 8.87891 204.666 8.90234 204.83 8.92188L205.521 8.99805C205.99 9.05273 206.373 9.14648 206.67 9.2793C206.967 9.4082 207.186 9.58398 207.326 9.80664C207.467 10.0293 207.537 10.3047 207.537 10.6328C207.537 11.0469 207.441 11.4043 207.25 11.7051C207.059 12.0098 206.783 12.2578 206.424 12.4492C206.15 12.5898 205.834 12.6973 205.475 12.7715C205.119 12.8457 204.725 12.8828 204.291 12.8828ZM204.332 12.1738C204.688 12.1738 205.004 12.1426 205.281 12.0801C205.562 12.0176 205.801 11.9277 205.996 11.8105C206.207 11.6816 206.367 11.5254 206.477 11.3418C206.59 11.1582 206.646 10.9473 206.646 10.709C206.646 10.6035 206.629 10.5078 206.594 10.4219C206.562 10.3359 206.512 10.2598 206.441 10.1934C206.332 10.0879 206.176 10.002 205.973 9.93555C205.77 9.86914 205.512 9.82227 205.199 9.79492L204.262 9.70117C203.934 9.77148 203.658 9.875 203.436 10.0117C203.217 10.1523 203.051 10.3184 202.938 10.5098C202.824 10.7012 202.768 10.916 202.768 11.1543C202.768 11.4746 202.9 11.7246 203.166 11.9043C203.432 12.084 203.82 12.1738 204.332 12.1738ZM205.428 7.06445C205.764 7.06445 206.047 6.98047 206.277 6.8125C206.512 6.64062 206.691 6.41406 206.816 6.13281C206.941 5.84766 207.004 5.53711 207.004 5.20117C207.004 5.0332 206.98 4.88477 206.934 4.75586C206.891 4.62305 206.824 4.51367 206.734 4.42773C206.648 4.33789 206.539 4.26953 206.406 4.22266C206.277 4.17578 206.129 4.15234 205.961 4.15234C205.715 4.15234 205.494 4.20117 205.299 4.29883C205.104 4.39258 204.938 4.52344 204.801 4.69141C204.668 4.85938 204.564 5.05469 204.49 5.27734C204.42 5.5 204.385 5.73828 204.385 5.99219C204.385 6.15625 204.406 6.30273 204.449 6.43164C204.492 6.56055 204.555 6.66992 204.637 6.75977C204.816 6.96289 205.08 7.06445 205.428 7.06445ZM211.58 10.1172C211.1 10.1172 210.686 10.0215 210.338 9.83008C209.99 9.63477 209.723 9.35742 209.535 8.99805C209.352 8.63477 209.26 8.20117 209.26 7.69727C209.26 7.17773 209.334 6.66797 209.482 6.16797C209.635 5.66406 209.852 5.20898 210.133 4.80273C210.414 4.39258 210.752 4.06641 211.146 3.82422C211.545 3.58203 211.99 3.46094 212.482 3.46094C213.072 3.46094 213.52 3.59375 213.824 3.85938C214.129 4.12109 214.281 4.48242 214.281 4.94336C214.281 5.26758 214.205 5.56641 214.053 5.83984C213.904 6.11328 213.674 6.35156 213.361 6.55469C213.053 6.75391 212.66 6.91016 212.184 7.02344C211.711 7.13281 211.15 7.1875 210.502 7.1875H210.279C210.271 7.25781 210.264 7.33594 210.256 7.42188C210.252 7.50781 210.25 7.58789 210.25 7.66211C210.25 8.17773 210.375 8.58203 210.625 8.875C210.875 9.16406 211.25 9.30859 211.75 9.30859C212.059 9.30859 212.35 9.26562 212.623 9.17969C212.9 9.08984 213.189 8.97266 213.49 8.82812V9.66602C213.201 9.79883 212.91 9.9082 212.617 9.99414C212.324 10.0762 211.979 10.1172 211.58 10.1172ZM210.42 6.39062H210.561C211.061 6.39062 211.52 6.34766 211.938 6.26172C212.355 6.17188 212.691 6.02734 212.945 5.82812C213.199 5.625 213.326 5.35547 213.326 5.01953C213.326 4.80078 213.252 4.62109 213.104 4.48047C212.955 4.33984 212.729 4.26953 212.424 4.26953C212.154 4.26953 211.889 4.35352 211.627 4.52148C211.365 4.68555 211.127 4.92578 210.912 5.24219C210.701 5.55859 210.537 5.94141 210.42 6.39062ZM0.507812 26L2.31836 17.4336H8.18359L6.37305 26H5.37695L7 18.3125H3.12109L1.49219 26H0.507812ZM7.89062 28.8711L9.85352 19.5781H10.6504L10.4922 20.8262H10.5332C10.7168 20.584 10.918 20.3613 11.1367 20.1582C11.3594 19.9512 11.6016 19.7852 11.8633 19.6602C12.1289 19.5352 12.418 19.4727 12.7305 19.4727C13.082 19.4727 13.3887 19.5566 13.6504 19.7246C13.9121 19.8887 14.1152 20.1348 14.2598 20.4629C14.4082 20.7871 14.4824 21.1914 14.4824 21.6758C14.4824 22.1367 14.4355 22.5859 14.3418 23.0234C14.252 23.457 14.1191 23.8613 13.9434 24.2363C13.7676 24.6074 13.5508 24.9355 13.293 25.2207C13.0391 25.502 12.748 25.7227 12.4199 25.8828C12.0918 26.0391 11.7305 26.1172 11.3359 26.1172C11.0352 26.1172 10.7754 26.0645 10.5566 25.959C10.3418 25.8496 10.1602 25.707 10.0117 25.5312C9.86719 25.3555 9.75195 25.166 9.66602 24.9629H9.61328C9.59766 25.1074 9.57227 25.2969 9.53711 25.5312C9.50586 25.7617 9.47266 25.9551 9.4375 26.1113L8.85156 28.8711H7.89062ZM11.2656 25.3086C11.5391 25.3086 11.7891 25.2402 12.0156 25.1035C12.2461 24.9668 12.4512 24.7812 12.6309 24.5469C12.8145 24.3086 12.9688 24.0332 13.0938 23.7207C13.2227 23.4082 13.3203 23.0762 13.3867 22.7246C13.4531 22.373 13.4863 22.0156 13.4863 21.6523C13.4863 21.1992 13.3945 20.8574 13.2109 20.627C13.0312 20.3965 12.7617 20.2812 12.4023 20.2812C12.2148 20.2812 12.0254 20.3281 11.834 20.4219C11.6426 20.5117 11.457 20.6406 11.2773 20.8086C11.0977 20.9727 10.9297 21.168 10.7734 21.3945C10.6172 21.6211 10.4805 21.8711 10.3633 22.1445C10.25 22.418 10.1602 22.707 10.0938 23.0117C10.0273 23.3164 9.99414 23.6289 9.99414 23.9492C9.99414 24.3594 10.0977 24.6895 10.3047 24.9395C10.5156 25.1855 10.8359 25.3086 11.2656 25.3086ZM17.3535 26.1172C17.0293 26.1172 16.7461 26.0566 16.5039 25.9355C16.2617 25.8145 16.0742 25.6367 15.9414 25.4023C15.8125 25.1641 15.748 24.873 15.748 24.5293C15.748 24.3574 15.7598 24.1914 15.7832 24.0312C15.8105 23.8672 15.8398 23.6973 15.8711 23.5215L16.7207 19.5781H17.7051L16.832 23.6328C16.8008 23.8008 16.7754 23.9512 16.7559 24.084C16.7402 24.2129 16.7324 24.3281 16.7324 24.4297C16.7324 24.707 16.8027 24.9238 16.9434 25.0801C17.0879 25.2324 17.3164 25.3086 17.6289 25.3086C17.9219 25.3086 18.2285 25.209 18.5488 25.0098C18.873 24.8105 19.1719 24.498 19.4453 24.0723C19.7227 23.6426 19.9336 23.0859 20.0781 22.4023L20.6758 19.5781H21.6367L20.2773 26H19.4746L19.6328 24.7578H19.5801C19.4316 24.9609 19.252 25.168 19.041 25.3789C18.8301 25.5859 18.5859 25.7617 18.3086 25.9062C18.0312 26.0469 17.7129 26.1172 17.3535 26.1172ZM21.9473 26.0762C21.8496 26.0762 21.7578 26.0664 21.6719 26.0469C21.5859 26.0312 21.5195 26.0156 21.4727 26V25.1562C21.5273 25.1797 21.5879 25.1973 21.6543 25.209C21.7168 25.2207 21.7852 25.2266 21.8594 25.2266C22.0547 25.2266 22.2285 25.1797 22.3809 25.0859C22.5332 24.9922 22.6738 24.8438 22.8027 24.6406C22.9355 24.4375 23.0664 24.1719 23.1953 23.8438C23.3281 23.5156 23.4727 23.1172 23.6289 22.6484C23.8125 22.1133 23.9883 21.6484 24.1562 21.2539C24.3281 20.8594 24.5195 20.5352 24.7305 20.2812C24.9453 20.0234 25.2051 19.832 25.5098 19.707C25.8184 19.582 26.2012 19.5195 26.6582 19.5195C26.9199 19.5195 27.1719 19.5371 27.4141 19.5723C27.6562 19.6074 27.8789 19.6523 28.082 19.707L26.7344 26H25.75L26.9688 20.3926C26.9141 20.3809 26.8457 20.3711 26.7637 20.3633C26.6855 20.3516 26.5996 20.3457 26.5059 20.3457C26.166 20.3457 25.8887 20.4238 25.6738 20.5801C25.4629 20.7324 25.2695 21 25.0938 21.3828C24.9219 21.7617 24.7188 22.293 24.4844 22.9766C24.3086 23.4883 24.1387 23.9375 23.9746 24.3242C23.8145 24.7109 23.6426 25.0352 23.459 25.2969C23.2793 25.5547 23.0664 25.75 22.8203 25.8828C22.5781 26.0117 22.2871 26.0762 21.9473 26.0762ZM31.4277 26.0938C30.9355 26.0938 30.5117 25.9941 30.1562 25.7949C29.8008 25.5918 29.5273 25.3066 29.3359 24.9395C29.1484 24.5684 29.0547 24.1309 29.0547 23.627C29.0547 23.2207 29.0996 22.8203 29.1895 22.4258C29.2793 22.0273 29.4121 21.6523 29.5879 21.3008C29.7637 20.9453 29.9805 20.6328 30.2383 20.3633C30.5 20.0898 30.8008 19.877 31.1406 19.7246C31.4805 19.5684 31.8594 19.4902 32.2773 19.4902C32.7773 19.4902 33.2031 19.5918 33.5547 19.7949C33.9102 19.9941 34.1816 20.2793 34.3691 20.6504C34.5605 21.0215 34.6562 21.4609 34.6562 21.9688C34.6562 22.3672 34.6113 22.7637 34.5215 23.1582C34.4355 23.5527 34.3047 23.9277 34.1289 24.2832C33.957 24.6348 33.7402 24.9473 33.4785 25.2207C33.2207 25.4902 32.9199 25.7031 32.5762 25.8594C32.2363 26.0156 31.8535 26.0938 31.4277 26.0938ZM31.4863 25.2852C31.7285 25.2852 31.959 25.2344 32.1777 25.1328C32.3965 25.0312 32.5957 24.8848 32.7754 24.6934C32.9551 24.498 33.1094 24.2617 33.2383 23.9844C33.3711 23.7031 33.4727 23.3848 33.543 23.0293C33.6172 22.6738 33.6543 22.2832 33.6543 21.8574C33.6543 21.6035 33.6094 21.3574 33.5195 21.1191C33.4297 20.8809 33.2852 20.6855 33.0859 20.5332C32.8867 20.377 32.6211 20.2988 32.2891 20.2988C32.0156 20.2988 31.7617 20.3555 31.5273 20.4688C31.2969 20.582 31.0898 20.7422 30.9062 20.9492C30.7227 21.1562 30.5664 21.4004 30.4375 21.6816C30.3125 21.9629 30.2148 22.2715 30.1445 22.6074C30.0781 22.9434 30.0449 23.2969 30.0449 23.668C30.0449 24.1797 30.1699 24.5781 30.4199 24.8633C30.6699 25.1445 31.0254 25.2852 31.4863 25.2852ZM35.7344 26.1172C35.625 26.1172 35.5078 26.1094 35.3828 26.0938C35.2578 26.0781 35.1445 26.0566 35.043 26.0293L35.1895 25.2324C35.2637 25.252 35.3516 25.2695 35.4531 25.2852C35.5547 25.3008 35.6523 25.3086 35.7461 25.3086C36.0352 25.3086 36.2949 25.2422 36.5254 25.1094C36.7598 24.9727 36.9648 24.7891 37.1406 24.5586C37.3164 24.3281 37.4629 24.0684 37.5801 23.7793C37.7012 23.4863 37.791 23.1816 37.8496 22.8652C37.9082 22.5488 37.9375 22.2383 37.9375 21.9336C37.9375 21.4453 37.8438 21.0488 37.6562 20.7441C37.4688 20.4355 37.166 20.2812 36.748 20.2812C36.6309 20.2812 36.5195 20.2891 36.4141 20.3047C36.3086 20.3164 36.2012 20.3359 36.0918 20.3633V19.5547C36.2051 19.5352 36.3301 19.5156 36.4668 19.4961C36.6074 19.4727 36.748 19.4609 36.8887 19.4609C37.5645 19.4609 38.0723 19.6758 38.4121 20.1055C38.752 20.5352 38.9219 21.1367 38.9219 21.9102C38.9219 21.9844 38.9199 22.0625 38.916 22.1445C38.9121 22.2227 38.9062 22.2969 38.8984 22.3672H39.8828L40.4746 19.5781H41.3711L40.7734 22.3672H41.7168C41.7871 22.0391 41.8965 21.7051 42.0449 21.3652C42.1973 21.0254 42.3945 20.7129 42.6367 20.4277C42.8789 20.1387 43.1719 19.9062 43.5156 19.7305C43.8594 19.5508 44.2598 19.4609 44.7168 19.4609C44.8496 19.4609 44.9805 19.4688 45.1094 19.4844C45.2383 19.4961 45.3691 19.5195 45.502 19.5547L45.3203 20.3516C45.2344 20.3281 45.1367 20.3105 45.0273 20.2988C44.9219 20.2871 44.8203 20.2812 44.7227 20.2812C44.4336 20.2812 44.1738 20.3496 43.9434 20.4863C43.7129 20.6191 43.5117 20.8008 43.3398 21.0312C43.168 21.2617 43.0254 21.5234 42.9121 21.8164C42.7988 22.1055 42.7129 22.4082 42.6543 22.7246C42.5996 23.0371 42.5723 23.3438 42.5723 23.6445C42.5723 24.1328 42.6602 24.5332 42.8359 24.8457C43.0156 25.1543 43.3184 25.3086 43.7441 25.3086C43.877 25.3086 43.9902 25.3008 44.084 25.2852C44.1816 25.2695 44.2832 25.248 44.3887 25.2207V26.0293C44.2949 26.0449 44.1777 26.0625 44.0371 26.082C43.8965 26.1055 43.7539 26.1172 43.6094 26.1172C43.1641 26.1172 42.7891 26.0215 42.4844 25.8301C42.1836 25.6387 41.957 25.3613 41.8047 24.998C41.6523 24.6309 41.5762 24.1875 41.5762 23.668C41.5762 23.5781 41.5781 23.4883 41.582 23.3984C41.5859 23.3047 41.5938 23.2129 41.6055 23.123H40.6152L40.0117 26H39.1211L39.7363 23.123H38.7871C38.709 23.4902 38.5879 23.8516 38.4238 24.207C38.2637 24.5586 38.0586 24.8789 37.8086 25.168C37.5625 25.457 37.2656 25.6875 36.918 25.8594C36.5742 26.0312 36.1797 26.1172 35.7344 26.1172ZM48.1035 26.1172C47.623 26.1172 47.209 26.0215 46.8613 25.8301C46.5137 25.6348 46.2461 25.3574 46.0586 24.998C45.875 24.6348 45.7832 24.2012 45.7832 23.6973C45.7832 23.1777 45.8574 22.668 46.0059 22.168C46.1582 21.6641 46.375 21.209 46.6562 20.8027C46.9375 20.3926 47.2754 20.0664 47.6699 19.8242C48.0684 19.582 48.5137 19.4609 49.0059 19.4609C49.5957 19.4609 50.043 19.5938 50.3477 19.8594C50.6523 20.1211 50.8047 20.4824 50.8047 20.9434C50.8047 21.2676 50.7285 21.5664 50.5762 21.8398C50.4277 22.1133 50.1973 22.3516 49.8848 22.5547C49.5762 22.7539 49.1836 22.9102 48.707 23.0234C48.2344 23.1328 47.6738 23.1875 47.0254 23.1875H46.8027C46.7949 23.2578 46.7871 23.3359 46.7793 23.4219C46.7754 23.5078 46.7734 23.5879 46.7734 23.6621C46.7734 24.1777 46.8984 24.582 47.1484 24.875C47.3984 25.1641 47.7734 25.3086 48.2734 25.3086C48.582 25.3086 48.873 25.2656 49.1465 25.1797C49.4238 25.0898 49.7129 24.9727 50.0137 24.8281V25.666C49.7246 25.7988 49.4336 25.9082 49.1406 25.9941C48.8477 26.0762 48.502 26.1172 48.1035 26.1172ZM46.9434 22.3906H47.084C47.584 22.3906 48.043 22.3477 48.4609 22.2617C48.8789 22.1719 49.2148 22.0273 49.4688 21.8281C49.7227 21.625 49.8496 21.3555 49.8496 21.0195C49.8496 20.8008 49.7754 20.6211 49.627 20.4805C49.4785 20.3398 49.252 20.2695 48.9473 20.2695C48.6777 20.2695 48.4121 20.3535 48.1504 20.5215C47.8887 20.6855 47.6504 20.9258 47.4355 21.2422C47.2246 21.5586 47.0605 21.9414 46.9434 22.3906ZM51.5078 26L52.873 19.5781H53.8398L53.2832 22.2734H56.4121L56.9863 19.5781H57.959L56.6113 26H55.627L56.2305 23.0879H53.1016L52.4863 26H51.5078ZM60.5957 26.1172C60.2715 26.1172 59.9883 26.0566 59.7461 25.9355C59.5039 25.8145 59.3164 25.6367 59.1836 25.4023C59.0547 25.1641 58.9902 24.873 58.9902 24.5293C58.9902 24.3574 59.002 24.1914 59.0254 24.0312C59.0527 23.8672 59.082 23.6973 59.1133 23.5215L59.9629 19.5781H60.9473L60.0742 23.6328C60.043 23.8008 60.0176 23.9512 59.998 24.084C59.9824 24.2129 59.9746 24.3281 59.9746 24.4297C59.9746 24.707 60.0449 24.9238 60.1855 25.0801C60.3301 25.2324 60.5586 25.3086 60.8711 25.3086C61.1641 25.3086 61.4707 25.209 61.791 25.0098C62.1152 24.8105 62.4141 24.498 62.6875 24.0723C62.9648 23.6426 63.1758 23.0859 63.3203 22.4023L63.918 19.5781H64.8789L63.5195 26H62.7168L62.875 24.7578H62.8223C62.6738 24.9609 62.4941 25.168 62.2832 25.3789C62.0723 25.5859 61.8281 25.7617 61.5508 25.9062C61.2734 26.0469 60.9551 26.1172 60.5957 26.1172ZM68.1543 26.1172C67.6738 26.1172 67.2598 26.0215 66.9121 25.8301C66.5645 25.6348 66.2969 25.3574 66.1094 24.998C65.9258 24.6348 65.834 24.2012 65.834 23.6973C65.834 23.1777 65.9082 22.668 66.0566 22.168C66.209 21.6641 66.4258 21.209 66.707 20.8027C66.9883 20.3926 67.3262 20.0664 67.7207 19.8242C68.1191 19.582 68.5645 19.4609 69.0566 19.4609C69.6465 19.4609 70.0938 19.5938 70.3984 19.8594C70.7031 20.1211 70.8555 20.4824 70.8555 20.9434C70.8555 21.2676 70.7793 21.5664 70.627 21.8398C70.4785 22.1133 70.248 22.3516 69.9355 22.5547C69.627 22.7539 69.2344 22.9102 68.7578 23.0234C68.2852 23.1328 67.7246 23.1875 67.0762 23.1875H66.8535C66.8457 23.2578 66.8379 23.3359 66.8301 23.4219C66.8262 23.5078 66.8242 23.5879 66.8242 23.6621C66.8242 24.1777 66.9492 24.582 67.1992 24.875C67.4492 25.1641 67.8242 25.3086 68.3242 25.3086C68.6328 25.3086 68.9238 25.2656 69.1973 25.1797C69.4746 25.0898 69.7637 24.9727 70.0645 24.8281V25.666C69.7754 25.7988 69.4844 25.9082 69.1914 25.9941C68.8984 26.0762 68.5527 26.1172 68.1543 26.1172ZM66.9941 22.3906H67.1348C67.6348 22.3906 68.0938 22.3477 68.5117 22.2617C68.9297 22.1719 69.2656 22.0273 69.5195 21.8281C69.7734 21.625 69.9004 21.3555 69.9004 21.0195C69.9004 20.8008 69.8262 20.6211 69.6777 20.4805C69.5293 20.3398 69.3027 20.2695 68.998 20.2695C68.7285 20.2695 68.4629 20.3535 68.2012 20.5215C67.9395 20.6855 67.7012 20.9258 67.4863 21.2422C67.2754 21.5586 67.1113 21.9414 66.9941 22.3906ZM74.6758 26L76.041 19.5781H76.8379L76.6855 20.8203H76.7441C76.8848 20.6172 77.0547 20.4121 77.2539 20.2051C77.4531 19.9941 77.6836 19.8184 77.9453 19.6777C78.2109 19.5332 78.5117 19.4609 78.8477 19.4609C79.3008 19.4609 79.6445 19.5918 79.8789 19.8535C80.1133 20.1152 80.25 20.4727 80.2891 20.9258H80.3301C80.4863 20.6875 80.6738 20.457 80.8926 20.2344C81.1113 20.0078 81.3594 19.8223 81.6367 19.6777C81.918 19.5332 82.2266 19.4609 82.5625 19.4609C83.0586 19.4609 83.4414 19.5957 83.7109 19.8652C83.9805 20.1348 84.1152 20.5254 84.1152 21.0371C84.1152 21.2207 84.1035 21.3945 84.0801 21.5586C84.0605 21.7227 84.0293 21.8906 83.9863 22.0625L83.1543 26H82.1699L83.0371 21.957C83.0723 21.7812 83.0977 21.6289 83.1133 21.5C83.1328 21.3711 83.1426 21.248 83.1426 21.1309C83.1426 20.8691 83.0723 20.6621 82.9316 20.5098C82.791 20.3574 82.5742 20.2812 82.2812 20.2812C82.0742 20.2812 81.8594 20.3379 81.6367 20.4512C81.4141 20.5645 81.1973 20.7363 80.9863 20.9668C80.7793 21.1934 80.5918 21.4805 80.4238 21.8281C80.2559 22.1758 80.1211 22.584 80.0195 23.0527L79.3926 26H78.4199L79.2754 21.9746C79.3105 21.7949 79.3359 21.6406 79.3516 21.5117C79.3711 21.3789 79.3809 21.2656 79.3809 21.1719C79.3809 20.8945 79.3164 20.6777 79.1875 20.5215C79.0586 20.3613 78.8477 20.2812 78.5547 20.2812C78.3477 20.2812 78.1309 20.3359 77.9043 20.4453C77.6816 20.5547 77.4648 20.7266 77.2539 20.9609C77.043 21.1953 76.8496 21.4941 76.6738 21.8574C76.498 22.2207 76.3574 22.6582 76.252 23.1699L75.6543 26H74.6758ZM87.7598 26.0938C87.2676 26.0938 86.8438 25.9941 86.4883 25.7949C86.1328 25.5918 85.8594 25.3066 85.668 24.9395C85.4805 24.5684 85.3867 24.1309 85.3867 23.627C85.3867 23.2207 85.4316 22.8203 85.5215 22.4258C85.6113 22.0273 85.7441 21.6523 85.9199 21.3008C86.0957 20.9453 86.3125 20.6328 86.5703 20.3633C86.832 20.0898 87.1328 19.877 87.4727 19.7246C87.8125 19.5684 88.1914 19.4902 88.6094 19.4902C89.1094 19.4902 89.5352 19.5918 89.8867 19.7949C90.2422 19.9941 90.5137 20.2793 90.7012 20.6504C90.8926 21.0215 90.9883 21.4609 90.9883 21.9688C90.9883 22.3672 90.9434 22.7637 90.8535 23.1582C90.7676 23.5527 90.6367 23.9277 90.4609 24.2832C90.2891 24.6348 90.0723 24.9473 89.8105 25.2207C89.5527 25.4902 89.252 25.7031 88.9082 25.8594C88.5684 26.0156 88.1855 26.0938 87.7598 26.0938ZM87.8184 25.2852C88.0605 25.2852 88.291 25.2344 88.5098 25.1328C88.7285 25.0312 88.9277 24.8848 89.1074 24.6934C89.2871 24.498 89.4414 24.2617 89.5703 23.9844C89.7031 23.7031 89.8047 23.3848 89.875 23.0293C89.9492 22.6738 89.9863 22.2832 89.9863 21.8574C89.9863 21.6035 89.9414 21.3574 89.8516 21.1191C89.7617 20.8809 89.6172 20.6855 89.418 20.5332C89.2188 20.377 88.9531 20.2988 88.6211 20.2988C88.3477 20.2988 88.0938 20.3555 87.8594 20.4688C87.6289 20.582 87.4219 20.7422 87.2383 20.9492C87.0547 21.1562 86.8984 21.4004 86.7695 21.6816C86.6445 21.9629 86.5469 22.2715 86.4766 22.6074C86.4102 22.9434 86.377 23.2969 86.377 23.668C86.377 24.1797 86.502 24.5781 86.752 24.8633C87.002 25.1445 87.3574 25.2852 87.8184 25.2852ZM91.5098 26.0762C91.4121 26.0762 91.3203 26.0664 91.2344 26.0469C91.1484 26.0312 91.082 26.0156 91.0352 26V25.1562C91.0898 25.1797 91.1504 25.1973 91.2168 25.209C91.2793 25.2207 91.3477 25.2266 91.4219 25.2266C91.6172 25.2266 91.791 25.1797 91.9434 25.0859C92.0957 24.9922 92.2363 24.8438 92.3652 24.6406C92.498 24.4375 92.6289 24.1719 92.7578 23.8438C92.8906 23.5156 93.0352 23.1172 93.1914 22.6484C93.375 22.1133 93.5508 21.6484 93.7188 21.2539C93.8906 20.8594 94.082 20.5352 94.293 20.2812C94.5078 20.0234 94.7676 19.832 95.0723 19.707C95.3809 19.582 95.7637 19.5195 96.2207 19.5195C96.4824 19.5195 96.7344 19.5371 96.9766 19.5723C97.2188 19.6074 97.4414 19.6523 97.6445 19.707L96.2969 26H95.3125L96.5312 20.3926C96.4766 20.3809 96.4082 20.3711 96.3262 20.3633C96.248 20.3516 96.1621 20.3457 96.0684 20.3457C95.7285 20.3457 95.4512 20.4238 95.2363 20.5801C95.0254 20.7324 94.832 21 94.6562 21.3828C94.4844 21.7617 94.2812 22.293 94.0469 22.9766C93.8711 23.4883 93.7012 23.9375 93.5371 24.3242C93.377 24.7109 93.2051 25.0352 93.0215 25.2969C92.8418 25.5547 92.6289 25.75 92.3828 25.8828C92.1406 26.0117 91.8496 26.0762 91.5098 26.0762ZM100.902 26.1172C100.449 26.1172 100.062 26.0488 99.7422 25.9121C99.4258 25.7715 99.1855 25.5645 99.0215 25.291C98.8574 25.0137 98.7754 24.6699 98.7754 24.2598C98.7754 24.084 98.7891 23.8926 98.8164 23.6855C98.8477 23.4746 98.8828 23.2773 98.9219 23.0938L99.666 19.5781H100.65L100.029 22.3965C100.24 22.3574 100.469 22.3223 100.715 22.291C100.961 22.2598 101.215 22.2441 101.477 22.2441C101.961 22.2441 102.352 22.3164 102.648 22.4609C102.945 22.6055 103.162 22.8047 103.299 23.0586C103.439 23.3125 103.51 23.6074 103.51 23.9434C103.51 24.3301 103.414 24.6895 103.223 25.0215C103.031 25.3496 102.742 25.6152 102.355 25.8184C101.969 26.0176 101.484 26.1172 100.902 26.1172ZM100.99 25.3203C101.26 25.3203 101.492 25.2871 101.688 25.2207C101.883 25.1504 102.043 25.0547 102.168 24.9336C102.297 24.8125 102.391 24.6738 102.449 24.5176C102.512 24.3574 102.543 24.1895 102.543 24.0137C102.543 23.8184 102.502 23.6484 102.42 23.5039C102.338 23.3594 102.201 23.248 102.01 23.1699C101.822 23.0879 101.568 23.0469 101.248 23.0469C100.994 23.0469 100.75 23.0605 100.516 23.0879C100.285 23.1113 100.072 23.1426 99.877 23.1816C99.8262 23.4082 99.791 23.6016 99.7715 23.7617C99.752 23.918 99.7422 24.0586 99.7422 24.1836C99.7422 24.5156 99.832 24.7891 100.012 25.0039C100.191 25.2148 100.518 25.3203 100.99 25.3203ZM104.605 26L105.965 19.5781H106.926L106.264 22.6719L109.34 19.5781H110.57L107.324 22.748L109.516 26H108.35L106.252 22.7949L105.584 26H104.605ZM112.979 26.0938C112.486 26.0938 112.062 25.9941 111.707 25.7949C111.352 25.5918 111.078 25.3066 110.887 24.9395C110.699 24.5684 110.605 24.1309 110.605 23.627C110.605 23.2207 110.65 22.8203 110.74 22.4258C110.83 22.0273 110.963 21.6523 111.139 21.3008C111.314 20.9453 111.531 20.6328 111.789 20.3633C112.051 20.0898 112.352 19.877 112.691 19.7246C113.031 19.5684 113.41 19.4902 113.828 19.4902C114.328 19.4902 114.754 19.5918 115.105 19.7949C115.461 19.9941 115.732 20.2793 115.92 20.6504C116.111 21.0215 116.207 21.4609 116.207 21.9688C116.207 22.3672 116.162 22.7637 116.072 23.1582C115.986 23.5527 115.855 23.9277 115.68 24.2832C115.508 24.6348 115.291 24.9473 115.029 25.2207C114.771 25.4902 114.471 25.7031 114.127 25.8594C113.787 26.0156 113.404 26.0938 112.979 26.0938ZM113.037 25.2852C113.279 25.2852 113.51 25.2344 113.729 25.1328C113.947 25.0312 114.146 24.8848 114.326 24.6934C114.506 24.498 114.66 24.2617 114.789 23.9844C114.922 23.7031 115.023 23.3848 115.094 23.0293C115.168 22.6738 115.205 22.2832 115.205 21.8574C115.205 21.6035 115.16 21.3574 115.07 21.1191C114.98 20.8809 114.836 20.6855 114.637 20.5332C114.438 20.377 114.172 20.2988 113.84 20.2988C113.566 20.2988 113.312 20.3555 113.078 20.4688C112.848 20.582 112.641 20.7422 112.457 20.9492C112.273 21.1562 112.117 21.4004 111.988 21.6816C111.863 21.9629 111.766 22.2715 111.695 22.6074C111.629 22.9434 111.596 23.2969 111.596 23.668C111.596 24.1797 111.721 24.5781 111.971 24.8633C112.221 25.1445 112.576 25.2852 113.037 25.2852ZM122.588 26.1172C122.127 26.1172 121.74 26.0195 121.428 25.8242C121.115 25.6289 120.879 25.3555 120.719 25.0039C120.562 24.6523 120.484 24.2441 120.484 23.7793C120.484 23.4043 120.525 23.0293 120.607 22.6543C120.689 22.2754 120.812 21.918 120.977 21.582C121.141 21.2461 121.342 20.9473 121.58 20.6855C121.822 20.4238 122.1 20.2188 122.412 20.0703C122.729 19.918 123.082 19.8418 123.473 19.8418C123.797 19.8418 124.068 19.8926 124.287 19.9941C124.506 20.0918 124.688 20.2227 124.832 20.3867C124.977 20.5508 125.092 20.7266 125.178 20.9141H125.213C125.221 20.8477 125.225 20.7793 125.225 20.709C125.225 20.6348 125.225 20.5684 125.225 20.5098C125.225 19.5176 125.092 18.7812 124.826 18.3008C124.561 17.8164 124.15 17.5742 123.596 17.5742C123.389 17.5742 123.172 17.5996 122.945 17.6504C122.719 17.6973 122.516 17.7617 122.336 17.8438L122.09 17.1113C122.285 17.0176 122.533 16.9355 122.834 16.8652C123.135 16.7949 123.428 16.7598 123.713 16.7598C124.291 16.7598 124.764 16.9004 125.131 17.1816C125.498 17.4629 125.77 17.8789 125.945 18.4297C126.121 18.9766 126.209 19.6484 126.209 20.4453C126.209 20.8477 126.178 21.2656 126.115 21.6992C126.057 22.1328 125.965 22.5625 125.84 22.9883C125.715 23.4102 125.555 23.8105 125.359 24.1895C125.164 24.5645 124.932 24.8965 124.662 25.1855C124.396 25.4746 124.09 25.7031 123.742 25.8711C123.398 26.0352 123.014 26.1172 122.588 26.1172ZM122.688 25.2969C122.934 25.2969 123.162 25.2402 123.373 25.127C123.584 25.0098 123.777 24.8477 123.953 24.6406C124.129 24.4336 124.287 24.1934 124.428 23.9199C124.568 23.6426 124.689 23.3418 124.791 23.0176C124.893 22.6934 124.975 22.3574 125.037 22.0098C124.963 21.748 124.857 21.5117 124.721 21.3008C124.588 21.0898 124.426 20.9219 124.234 20.7969C124.043 20.668 123.818 20.6035 123.561 20.6035C123.334 20.6035 123.117 20.6562 122.91 20.7617C122.703 20.8672 122.512 21.0156 122.336 21.207C122.164 21.3984 122.014 21.625 121.885 21.8867C121.756 22.1484 121.654 22.4375 121.58 22.7539C121.51 23.0703 121.475 23.4062 121.475 23.7617C121.475 24.1992 121.57 24.5645 121.762 24.8574C121.953 25.1504 122.262 25.2969 122.688 25.2969ZM126.607 26.0762C126.51 26.0762 126.418 26.0664 126.332 26.0469C126.246 26.0312 126.18 26.0156 126.133 26V25.1562C126.188 25.1797 126.248 25.1973 126.314 25.209C126.377 25.2207 126.445 25.2266 126.52 25.2266C126.715 25.2266 126.889 25.1797 127.041 25.0859C127.193 24.9922 127.334 24.8438 127.463 24.6406C127.596 24.4375 127.727 24.1719 127.855 23.8438C127.988 23.5156 128.133 23.1172 128.289 22.6484C128.473 22.1133 128.648 21.6484 128.816 21.2539C128.988 20.8594 129.18 20.5352 129.391 20.2812C129.605 20.0234 129.865 19.832 130.17 19.707C130.479 19.582 130.861 19.5195 131.318 19.5195C131.58 19.5195 131.832 19.5371 132.074 19.5723C132.316 19.6074 132.539 19.6523 132.742 19.707L131.395 26H130.41L131.629 20.3926C131.574 20.3809 131.506 20.3711 131.424 20.3633C131.346 20.3516 131.26 20.3457 131.166 20.3457C130.826 20.3457 130.549 20.4238 130.334 20.5801C130.123 20.7324 129.93 21 129.754 21.3828C129.582 21.7617 129.379 22.293 129.145 22.9766C128.969 23.4883 128.799 23.9375 128.635 24.3242C128.475 24.7109 128.303 25.0352 128.119 25.2969C127.939 25.5547 127.727 25.75 127.48 25.8828C127.238 26.0117 126.947 26.0762 126.607 26.0762ZM133.328 26.0645C133.23 26.0645 133.143 26.0566 133.064 26.041C132.982 26.0293 132.916 26.0156 132.865 26V25.2207C132.908 25.2324 132.955 25.2422 133.006 25.25C133.057 25.2539 133.107 25.2559 133.158 25.2559C133.299 25.2559 133.42 25.2266 133.521 25.168C133.627 25.1055 133.729 25.002 133.826 24.8574C133.924 24.7129 134.033 24.5137 134.154 24.2598C134.24 24.0762 134.334 23.9082 134.436 23.7559C134.537 23.5996 134.656 23.4629 134.793 23.3457C134.934 23.2285 135.1 23.1367 135.291 23.0703C135.021 22.9961 134.803 22.8867 134.635 22.7422C134.467 22.5938 134.342 22.4219 134.26 22.2266C134.182 22.0273 134.143 21.8164 134.143 21.5938C134.143 21.293 134.197 21.0195 134.307 20.7734C134.42 20.5273 134.582 20.3145 134.793 20.1348C135.008 19.9551 135.271 19.8184 135.584 19.7246C135.896 19.627 136.252 19.5781 136.65 19.5781H139.064L137.711 26H136.744L137.301 23.4277H136.504C136.23 23.4277 136.01 23.4707 135.842 23.5566C135.674 23.6387 135.529 23.7656 135.408 23.9375C135.291 24.1055 135.168 24.3203 135.039 24.582C134.891 24.8906 134.744 25.1562 134.6 25.3789C134.455 25.6016 134.285 25.7715 134.09 25.8887C133.895 26.0059 133.641 26.0645 133.328 26.0645ZM136.398 22.5898H137.471L137.934 20.416H136.504C136.219 20.416 135.971 20.4609 135.76 20.5508C135.553 20.6406 135.393 20.7734 135.279 20.9492C135.166 21.125 135.109 21.3398 135.109 21.5938C135.109 21.9648 135.232 22.2246 135.479 22.373C135.725 22.5176 136.031 22.5898 136.398 22.5898ZM142.316 28.8711L144.279 19.5781H145.076L144.918 20.8262H144.959C145.143 20.584 145.344 20.3613 145.562 20.1582C145.785 19.9512 146.027 19.7852 146.289 19.6602C146.555 19.5352 146.844 19.4727 147.156 19.4727C147.508 19.4727 147.814 19.5566 148.076 19.7246C148.338 19.8887 148.541 20.1348 148.686 20.4629C148.834 20.7871 148.908 21.1914 148.908 21.6758C148.908 22.1367 148.861 22.5859 148.768 23.0234C148.678 23.457 148.545 23.8613 148.369 24.2363C148.193 24.6074 147.977 24.9355 147.719 25.2207C147.465 25.502 147.174 25.7227 146.846 25.8828C146.518 26.0391 146.156 26.1172 145.762 26.1172C145.461 26.1172 145.201 26.0645 144.982 25.959C144.768 25.8496 144.586 25.707 144.438 25.5312C144.293 25.3555 144.178 25.166 144.092 24.9629H144.039C144.023 25.1074 143.998 25.2969 143.963 25.5312C143.932 25.7617 143.898 25.9551 143.863 26.1113L143.277 28.8711H142.316ZM145.691 25.3086C145.965 25.3086 146.215 25.2402 146.441 25.1035C146.672 24.9668 146.877 24.7812 147.057 24.5469C147.24 24.3086 147.395 24.0332 147.52 23.7207C147.648 23.4082 147.746 23.0762 147.812 22.7246C147.879 22.373 147.912 22.0156 147.912 21.6523C147.912 21.1992 147.82 20.8574 147.637 20.627C147.457 20.3965 147.188 20.2812 146.828 20.2812C146.641 20.2812 146.451 20.3281 146.26 20.4219C146.068 20.5117 145.883 20.6406 145.703 20.8086C145.523 20.9727 145.355 21.168 145.199 21.3945C145.043 21.6211 144.906 21.8711 144.789 22.1445C144.676 22.418 144.586 22.707 144.52 23.0117C144.453 23.3164 144.42 23.6289 144.42 23.9492C144.42 24.3594 144.523 24.6895 144.73 24.9395C144.941 25.1855 145.262 25.3086 145.691 25.3086ZM149.172 28.8887C148.98 28.8887 148.826 28.877 148.709 28.8535C148.588 28.8301 148.471 28.8008 148.357 28.7656V27.9746C148.463 28.002 148.58 28.0254 148.709 28.0449C148.838 28.0684 148.975 28.0801 149.119 28.0801C149.439 28.0801 149.715 27.9785 149.945 27.7754C150.176 27.5723 150.4 27.2734 150.619 26.8789L151.07 26.0762L150.086 19.5781H151.07L151.516 22.877C151.555 23.1348 151.586 23.4121 151.609 23.709C151.633 24.002 151.65 24.2812 151.662 24.5469C151.674 24.8086 151.68 25.0215 151.68 25.1855H151.715C151.77 25.0566 151.852 24.8711 151.961 24.6289C152.07 24.3828 152.188 24.127 152.312 23.8613C152.438 23.5957 152.549 23.373 152.646 23.1934L154.574 19.5781H155.617L151.504 27.1133C151.293 27.5039 151.076 27.8301 150.854 28.0918C150.635 28.3574 150.391 28.5566 150.121 28.6895C149.852 28.8223 149.535 28.8887 149.172 28.8887ZM158.008 26.1172C157.531 26.1172 157.113 26.0273 156.754 25.8477C156.398 25.6641 156.121 25.3945 155.922 25.0391C155.727 24.6836 155.629 24.2422 155.629 23.7148C155.629 23.2578 155.678 22.8184 155.775 22.3965C155.877 21.9746 156.023 21.5859 156.215 21.2305C156.406 20.875 156.639 20.5645 156.912 20.2988C157.186 20.0332 157.496 19.8281 157.844 19.6836C158.195 19.5352 158.578 19.4609 158.992 19.4609C159.27 19.4609 159.545 19.4883 159.818 19.543C160.096 19.5938 160.346 19.668 160.568 19.7656L160.293 20.5859C160.129 20.5078 159.936 20.4375 159.713 20.375C159.49 20.3125 159.252 20.2812 158.998 20.2812C158.643 20.2812 158.318 20.3711 158.025 20.5508C157.736 20.7305 157.486 20.9805 157.275 21.3008C157.068 21.6172 156.908 21.9805 156.795 22.3906C156.682 22.8008 156.625 23.2383 156.625 23.7031C156.625 24.0352 156.684 24.3223 156.801 24.5645C156.918 24.8027 157.086 24.9863 157.305 25.1152C157.527 25.2441 157.793 25.3086 158.102 25.3086C158.387 25.3086 158.654 25.2695 158.904 25.1914C159.158 25.1133 159.406 25.0195 159.648 24.9102V25.7422C159.434 25.8516 159.188 25.9414 158.91 26.0117C158.637 26.082 158.336 26.1172 158.008 26.1172ZM163.445 26.1172C162.969 26.1172 162.551 26.0273 162.191 25.8477C161.836 25.6641 161.559 25.3945 161.359 25.0391C161.164 24.6836 161.066 24.2422 161.066 23.7148C161.066 23.2578 161.115 22.8184 161.213 22.3965C161.314 21.9746 161.461 21.5859 161.652 21.2305C161.844 20.875 162.076 20.5645 162.35 20.2988C162.623 20.0332 162.934 19.8281 163.281 19.6836C163.633 19.5352 164.016 19.4609 164.43 19.4609C164.707 19.4609 164.982 19.4883 165.256 19.543C165.533 19.5938 165.783 19.668 166.006 19.7656L165.73 20.5859C165.566 20.5078 165.373 20.4375 165.15 20.375C164.928 20.3125 164.689 20.2812 164.436 20.2812C164.08 20.2812 163.756 20.3711 163.463 20.5508C163.174 20.7305 162.924 20.9805 162.713 21.3008C162.506 21.6172 162.346 21.9805 162.232 22.3906C162.119 22.8008 162.062 23.2383 162.062 23.7031C162.062 24.0352 162.121 24.3223 162.238 24.5645C162.355 24.8027 162.523 24.9863 162.742 25.1152C162.965 25.2441 163.23 25.3086 163.539 25.3086C163.824 25.3086 164.092 25.2695 164.342 25.1914C164.596 25.1133 164.844 25.0195 165.086 24.9102V25.7422C164.871 25.8516 164.625 25.9414 164.348 26.0117C164.074 26.082 163.773 26.1172 163.445 26.1172ZM166.258 26L167.617 19.5781H168.578L167.916 22.6719L170.992 19.5781H172.223L168.977 22.748L171.168 26H170.002L167.904 22.7949L167.236 26H166.258ZM174.631 26.0938C174.139 26.0938 173.715 25.9941 173.359 25.7949C173.004 25.5918 172.73 25.3066 172.539 24.9395C172.352 24.5684 172.258 24.1309 172.258 23.627C172.258 23.2207 172.303 22.8203 172.393 22.4258C172.482 22.0273 172.615 21.6523 172.791 21.3008C172.967 20.9453 173.184 20.6328 173.441 20.3633C173.703 20.0898 174.004 19.877 174.344 19.7246C174.684 19.5684 175.062 19.4902 175.48 19.4902C175.98 19.4902 176.406 19.5918 176.758 19.7949C177.113 19.9941 177.385 20.2793 177.572 20.6504C177.764 21.0215 177.859 21.4609 177.859 21.9688C177.859 22.3672 177.814 22.7637 177.725 23.1582C177.639 23.5527 177.508 23.9277 177.332 24.2832C177.16 24.6348 176.943 24.9473 176.682 25.2207C176.424 25.4902 176.123 25.7031 175.779 25.8594C175.439 26.0156 175.057 26.0938 174.631 26.0938ZM174.689 25.2852C174.932 25.2852 175.162 25.2344 175.381 25.1328C175.6 25.0312 175.799 24.8848 175.979 24.6934C176.158 24.498 176.312 24.2617 176.441 23.9844C176.574 23.7031 176.676 23.3848 176.746 23.0293C176.82 22.6738 176.857 22.2832 176.857 21.8574C176.857 21.6035 176.812 21.3574 176.723 21.1191C176.633 20.8809 176.488 20.6855 176.289 20.5332C176.09 20.377 175.824 20.2988 175.492 20.2988C175.219 20.2988 174.965 20.3555 174.73 20.4688C174.5 20.582 174.293 20.7422 174.109 20.9492C173.926 21.1562 173.77 21.4004 173.641 21.6816C173.516 21.9629 173.418 22.2715 173.348 22.6074C173.281 22.9434 173.248 23.2969 173.248 23.668C173.248 24.1797 173.373 24.5781 173.623 24.8633C173.873 25.1445 174.229 25.2852 174.689 25.2852ZM180.754 26.1172C180.383 26.1172 180.043 26.0625 179.734 25.9531C179.43 25.8438 179.186 25.6719 179.002 25.4375C178.818 25.1992 178.727 24.8926 178.727 24.5176C178.727 24.209 178.787 23.9414 178.908 23.7148C179.029 23.4883 179.191 23.293 179.395 23.1289C179.602 22.9609 179.834 22.8164 180.092 22.6953C180.35 22.5703 180.613 22.459 180.883 22.3613C181.219 22.2324 181.512 22.1055 181.762 21.9805C182.012 21.8555 182.205 21.7168 182.342 21.5645C182.479 21.4082 182.547 21.2188 182.547 20.9961C182.547 20.7852 182.48 20.6133 182.348 20.4805C182.215 20.3477 181.979 20.2812 181.639 20.2812C181.322 20.2812 181.012 20.3262 180.707 20.416C180.406 20.502 180.131 20.6016 179.881 20.7148L179.611 19.9355C179.881 19.834 180.191 19.7324 180.543 19.6309C180.898 19.5254 181.297 19.4727 181.738 19.4727C182.094 19.4727 182.406 19.5234 182.676 19.625C182.945 19.7266 183.156 19.8848 183.309 20.0996C183.461 20.3145 183.537 20.5938 183.537 20.9375C183.537 21.2109 183.482 21.4512 183.373 21.6582C183.264 21.8652 183.113 22.0488 182.922 22.209C182.734 22.3652 182.52 22.5039 182.277 22.625C182.039 22.7422 181.787 22.8496 181.521 22.9473C181.143 23.0918 180.818 23.2285 180.549 23.3574C180.279 23.4824 180.072 23.6289 179.928 23.7969C179.783 23.9648 179.711 24.1797 179.711 24.4414C179.711 24.707 179.807 24.918 179.998 25.0742C180.193 25.2305 180.492 25.3086 180.895 25.3086C181.117 25.3086 181.332 25.2871 181.539 25.2441C181.75 25.1973 181.955 25.1367 182.154 25.0625C182.357 24.9844 182.553 24.9004 182.74 24.8105V25.6719C182.467 25.7969 182.17 25.9023 181.85 25.9883C181.529 26.0742 181.164 26.1172 180.754 26.1172ZM186.854 26.0938C186.361 26.0938 185.938 25.9941 185.582 25.7949C185.227 25.5918 184.953 25.3066 184.762 24.9395C184.574 24.5684 184.48 24.1309 184.48 23.627C184.48 23.2207 184.525 22.8203 184.615 22.4258C184.705 22.0273 184.838 21.6523 185.014 21.3008C185.189 20.9453 185.406 20.6328 185.664 20.3633C185.926 20.0898 186.227 19.877 186.566 19.7246C186.906 19.5684 187.285 19.4902 187.703 19.4902C188.203 19.4902 188.629 19.5918 188.98 19.7949C189.336 19.9941 189.607 20.2793 189.795 20.6504C189.986 21.0215 190.082 21.4609 190.082 21.9688C190.082 22.3672 190.037 22.7637 189.947 23.1582C189.861 23.5527 189.73 23.9277 189.555 24.2832C189.383 24.6348 189.166 24.9473 188.904 25.2207C188.646 25.4902 188.346 25.7031 188.002 25.8594C187.662 26.0156 187.279 26.0938 186.854 26.0938ZM186.912 25.2852C187.154 25.2852 187.385 25.2344 187.604 25.1328C187.822 25.0312 188.021 24.8848 188.201 24.6934C188.381 24.498 188.535 24.2617 188.664 23.9844C188.797 23.7031 188.898 23.3848 188.969 23.0293C189.043 22.6738 189.08 22.2832 189.08 21.8574C189.08 21.6035 189.035 21.3574 188.945 21.1191C188.855 20.8809 188.711 20.6855 188.512 20.5332C188.312 20.377 188.047 20.2988 187.715 20.2988C187.441 20.2988 187.188 20.3555 186.953 20.4688C186.723 20.582 186.516 20.7422 186.332 20.9492C186.148 21.1562 185.992 21.4004 185.863 21.6816C185.738 21.9629 185.641 22.2715 185.57 22.6074C185.504 22.9434 185.471 23.2969 185.471 23.668C185.471 24.1797 185.596 24.5781 185.846 24.8633C186.096 25.1445 186.451 25.2852 186.912 25.2852ZM193.973 26.0645C193.875 26.0645 193.787 26.0566 193.709 26.041C193.627 26.0293 193.561 26.0156 193.51 26V25.2207C193.553 25.2324 193.6 25.2422 193.65 25.25C193.701 25.2539 193.752 25.2559 193.803 25.2559C193.943 25.2559 194.064 25.2266 194.166 25.168C194.271 25.1055 194.373 25.002 194.471 24.8574C194.568 24.7129 194.678 24.5137 194.799 24.2598C194.885 24.0762 194.979 23.9082 195.08 23.7559C195.182 23.5996 195.301 23.4629 195.438 23.3457C195.578 23.2285 195.744 23.1367 195.936 23.0703C195.666 22.9961 195.447 22.8867 195.279 22.7422C195.111 22.5938 194.986 22.4219 194.904 22.2266C194.826 22.0273 194.787 21.8164 194.787 21.5938C194.787 21.293 194.842 21.0195 194.951 20.7734C195.064 20.5273 195.227 20.3145 195.438 20.1348C195.652 19.9551 195.916 19.8184 196.229 19.7246C196.541 19.627 196.896 19.5781 197.295 19.5781H199.709L198.355 26H197.389L197.945 23.4277H197.148C196.875 23.4277 196.654 23.4707 196.486 23.5566C196.318 23.6387 196.174 23.7656 196.053 23.9375C195.936 24.1055 195.812 24.3203 195.684 24.582C195.535 24.8906 195.389 25.1562 195.244 25.3789C195.1 25.6016 194.93 25.7715 194.734 25.8887C194.539 26.0059 194.285 26.0645 193.973 26.0645ZM197.043 22.5898H198.115L198.578 20.416H197.148C196.863 20.416 196.615 20.4609 196.404 20.5508C196.197 20.6406 196.037 20.7734 195.924 20.9492C195.811 21.125 195.754 21.3398 195.754 21.5938C195.754 21.9648 195.877 22.2246 196.123 22.373C196.369 22.5176 196.676 22.5898 197.043 22.5898ZM201.924 26.1172C201.572 26.1172 201.232 26.0801 200.904 26.0059C200.58 25.9316 200.309 25.834 200.09 25.7129V24.8047C200.297 24.9258 200.562 25.043 200.887 25.1562C201.215 25.2656 201.586 25.3203 202 25.3203C202.34 25.3203 202.637 25.2695 202.891 25.168C203.145 25.0625 203.342 24.9141 203.482 24.7227C203.627 24.5312 203.699 24.3066 203.699 24.0488C203.699 23.752 203.611 23.5156 203.436 23.3398C203.26 23.1602 202.93 23.0703 202.445 23.0703H201.59L201.777 22.25H202.369C202.643 22.25 202.91 22.2207 203.172 22.1621C203.434 22.0996 203.65 21.9863 203.822 21.8223C203.994 21.6543 204.08 21.4141 204.08 21.1016C204.08 20.8516 203.994 20.6523 203.822 20.5039C203.65 20.3555 203.395 20.2812 203.055 20.2812C202.77 20.2812 202.498 20.3164 202.24 20.3867C201.986 20.4531 201.703 20.5547 201.391 20.6914L201.104 19.9414C201.428 19.7891 201.75 19.6719 202.07 19.5898C202.395 19.5039 202.764 19.4609 203.178 19.4609C203.572 19.4609 203.908 19.5195 204.186 19.6367C204.467 19.7539 204.682 19.9258 204.83 20.1523C204.979 20.375 205.053 20.6445 205.053 20.9609C205.053 21.25 204.994 21.5078 204.877 21.7344C204.76 21.9609 204.59 22.1504 204.367 22.3027C204.145 22.4512 203.873 22.5605 203.553 22.6309V22.6543C203.896 22.7402 204.162 22.8965 204.35 23.123C204.541 23.3496 204.637 23.6484 204.637 24.0195C204.637 24.4258 204.535 24.7871 204.332 25.1035C204.129 25.4199 203.826 25.668 203.424 25.8477C203.021 26.0273 202.521 26.1172 201.924 26.1172ZM208.205 26.1172C207.771 26.1172 207.4 26.0488 207.092 25.9121C206.787 25.7715 206.553 25.5645 206.389 25.291C206.225 25.0176 206.143 24.6758 206.143 24.2656C206.143 24.0938 206.156 23.9023 206.184 23.6914C206.215 23.4766 206.25 23.2773 206.289 23.0938L207.027 19.5781H208.012L207.408 22.3965C207.604 22.3574 207.812 22.3223 208.035 22.291C208.262 22.2598 208.494 22.2441 208.732 22.2441C209.17 22.2441 209.533 22.3105 209.822 22.4434C210.111 22.5723 210.328 22.7637 210.473 23.0176C210.621 23.2676 210.695 23.5723 210.695 23.9316C210.695 24.3262 210.605 24.6895 210.426 25.0215C210.246 25.3535 209.973 25.6191 209.605 25.8184C209.238 26.0176 208.771 26.1172 208.205 26.1172ZM208.264 25.3203C208.518 25.3203 208.736 25.2852 208.92 25.2148C209.107 25.1445 209.26 25.0488 209.377 24.9277C209.498 24.8066 209.586 24.668 209.641 24.5117C209.699 24.3555 209.729 24.1895 209.729 24.0137C209.729 23.7793 209.682 23.5918 209.588 23.4512C209.494 23.3105 209.354 23.209 209.166 23.1465C208.979 23.0801 208.742 23.0469 208.457 23.0469C208.246 23.0469 208.037 23.0605 207.83 23.0879C207.627 23.1113 207.432 23.1426 207.244 23.1816C207.193 23.416 207.156 23.6094 207.133 23.7617C207.113 23.9141 207.104 24.0547 207.104 24.1836C207.104 24.5469 207.193 24.8281 207.373 25.0273C207.557 25.2227 207.854 25.3203 208.264 25.3203ZM211.34 26L212.693 19.5781H213.672L212.307 26H211.34ZM214.375 26L215.734 19.5781H216.695L216.033 22.6719L219.109 19.5781H220.34L217.094 22.748L219.285 26H218.119L216.021 22.7949L215.354 26H214.375ZM222.109 26.1172C221.762 26.1172 221.457 26.0332 221.195 25.8652C220.934 25.6973 220.73 25.4492 220.586 25.1211C220.441 24.793 220.369 24.3926 220.369 23.9199C220.369 23.4473 220.418 22.9922 220.516 22.5547C220.617 22.1172 220.76 21.7109 220.943 21.3359C221.127 20.9609 221.348 20.6328 221.605 20.3516C221.867 20.0703 222.16 19.8516 222.484 19.6953C222.809 19.5391 223.158 19.4609 223.533 19.4609C223.822 19.4609 224.072 19.5156 224.283 19.625C224.498 19.7344 224.676 19.8789 224.816 20.0586C224.961 20.2344 225.074 20.4219 225.156 20.6211H225.215L225.59 19.5781H226.334L224.975 26H224.195L224.371 24.7578H224.324C224.148 24.9922 223.947 25.2129 223.721 25.4199C223.494 25.627 223.246 25.7949 222.977 25.9238C222.707 26.0527 222.418 26.1172 222.109 26.1172ZM222.426 25.3086C222.727 25.3086 223.023 25.1992 223.316 24.9805C223.613 24.7578 223.879 24.459 224.113 24.084C224.352 23.7051 224.533 23.2793 224.658 22.8066C224.721 22.5762 224.762 22.3652 224.781 22.1738C224.805 21.9785 224.816 21.7969 224.816 21.6289C224.816 21.2266 224.709 20.9023 224.494 20.6562C224.283 20.4062 223.994 20.2812 223.627 20.2812C223.365 20.2812 223.119 20.3477 222.889 20.4805C222.658 20.6094 222.449 20.791 222.262 21.0254C222.078 21.2559 221.92 21.5254 221.787 21.834C221.654 22.1387 221.551 22.4707 221.477 22.8301C221.406 23.1895 221.371 23.5586 221.371 23.9375C221.371 24.3867 221.463 24.7285 221.646 24.9629C221.83 25.1934 222.09 25.3086 222.426 25.3086ZM225.666 27.8984C226.1 27.4297 226.494 26.9316 226.85 26.4043C227.209 25.877 227.518 25.3223 227.775 24.7402C228.037 24.1543 228.238 23.543 228.379 22.9062C228.52 22.2695 228.59 21.6055 228.59 20.9141C228.59 20.457 228.564 20.0273 228.514 19.625C228.463 19.2188 228.387 18.834 228.285 18.4707C228.184 18.1035 228.059 17.7578 227.91 17.4336H228.678C228.857 17.7578 229.01 18.1055 229.135 18.4766C229.26 18.8438 229.355 19.2305 229.422 19.6367C229.488 20.043 229.521 20.4688 229.521 20.9141C229.521 21.6289 229.455 22.3066 229.322 22.9473C229.193 23.5879 229.002 24.1953 228.748 24.7695C228.494 25.3398 228.184 25.8848 227.816 26.4043C227.453 26.9238 227.037 27.4219 226.568 27.8984H225.666Z" fill="#CF4D4F"/>
</svg>
